<?xml version="1.0" encoding="utf-8" standalone="no"?>
<!DOCTYPE svg PUBLIC "-//W3C//DTD SVG 1.1//EN"
  "http://www.w3.org/Graphics/SVG/1.1/DTD/svg11.dtd">
<svg xmlns:xlink="http://www.w3.org/1999/xlink" width="522.065742pt" height="481.600078pt" viewBox="0 0 522.065742 481.600078" xmlns="http://www.w3.org/2000/svg" version="1.1">
 <metadata>
  <rdf:RDF xmlns:dc="http://purl.org/dc/elements/1.1/" xmlns:cc="http://creativecommons.org/ns#" xmlns:rdf="http://www.w3.org/1999/02/22-rdf-syntax-ns#">
   <cc:Work>
    <dc:type rdf:resource="http://purl.org/dc/dcmitype/StillImage"/>
    <dc:date>2026-07-09T11:41:05.067085</dc:date>
    <dc:format>image/svg+xml</dc:format>
    <dc:creator>
     <cc:Agent>
      <dc:title>Matplotlib v3.11.0, https://matplotlib.org/</dc:title>
     </cc:Agent>
    </dc:creator>
   </cc:Work>
  </rdf:RDF>
 </metadata>
 <defs>
  <style type="text/css">*{stroke-linejoin: round; stroke-linecap: butt}</style>
 </defs>
 <g id="figure_1">
  <g id="patch_1">
   <path d="M 0 481.600078 
L 522.065742 481.600078 
L 522.065742 0 
L 0 0 
z
" style="fill: #fcfcfb"/>
  </g>
  <g id="axes_1">
   <g id="patch_2">
    <path d="M 53.705742 415.717969 
L 511.265742 415.717969 
L 511.265742 32.677969 
L 53.705742 32.677969 
z
" style="fill: #fcfcfb"/>
   </g>
   <g id="patch_3">
    <path d="M 53.705742 217.438439 
L 511.265742 217.438439 
L 511.265742 113.792322 
L 53.705742 113.792322 
z
" clip-path="url(#p9813d5d6b0)" style="fill: #cde2fb; opacity: 0.35; stroke: #cde2fb; stroke-linejoin: miter"/>
   </g>
   <g id="matplotlib.axis_1">
    <g id="xtick_1">
     <g id="line2d_1">
      <path d="M 53.705742 415.717969 
L 53.705742 32.677969 
" clip-path="url(#p9813d5d6b0)" style="fill: none; stroke: #e1e0d9; stroke-width: 0.8; stroke-linecap: square"/>
     </g>
     <g id="line2d_2">
      <defs>
       <path id="m99e6c03687" d="M 0 0 
L 0 3 
" style="stroke: #898781; stroke-width: 0.8"/>
      </defs>
      <g>
       <use xlink:href="#m99e6c03687" x="53.705742" y="415.717969" style="fill: #898781; stroke: #898781; stroke-width: 0.8"/>
      </g>
     </g>
     <g id="text_1">
      <!-- 0 -->
      <g style="fill: #898781" transform="translate(50.842617 429.055859) scale(0.09 -0.09)">
       <defs>
        <path id="DejaVuSans-13" d="M 2034 4250 
Q 1547 4250 1301 3770 
Q 1056 3291 1056 2328 
Q 1056 1369 1301 889 
Q 1547 409 2034 409 
Q 2525 409 2770 889 
Q 3016 1369 3016 2328 
Q 3016 3291 2770 3770 
Q 2525 4250 2034 4250 
z
M 2034 4750 
Q 2819 4750 3233 4129 
Q 3647 3509 3647 2328 
Q 3647 1150 3233 529 
Q 2819 -91 2034 -91 
Q 1250 -91 836 529 
Q 422 1150 422 2328 
Q 422 3509 836 4129 
Q 1250 4750 2034 4750 
z
" transform="scale(0.015625)"/>
       </defs>
       <use xlink:href="#DejaVuSans-13"/>
      </g>
     </g>
    </g>
    <g id="xtick_2">
     <g id="line2d_3">
      <path d="M 106.851574 415.717969 
L 106.851574 32.677969 
" clip-path="url(#p9813d5d6b0)" style="fill: none; stroke: #e1e0d9; stroke-width: 0.8; stroke-linecap: square"/>
     </g>
     <g id="line2d_4">
      <g>
       <use xlink:href="#m99e6c03687" x="106.851574" y="415.717969" style="fill: #898781; stroke: #898781; stroke-width: 0.8"/>
      </g>
     </g>
     <g id="text_2">
      <!-- 250 -->
      <g style="fill: #898781" transform="translate(98.262199 429.055859) scale(0.09 -0.09)">
       <defs>
        <path id="DejaVuSans-15" d="M 1228 531 
L 3431 531 
L 3431 0 
L 469 0 
L 469 531 
Q 828 903 1448 1529 
Q 2069 2156 2228 2338 
Q 2531 2678 2651 2914 
Q 2772 3150 2772 3378 
Q 2772 3750 2511 3984 
Q 2250 4219 1831 4219 
Q 1534 4219 1204 4116 
Q 875 4013 500 3803 
L 500 4441 
Q 881 4594 1212 4672 
Q 1544 4750 1819 4750 
Q 2544 4750 2975 4387 
Q 3406 4025 3406 3419 
Q 3406 3131 3298 2873 
Q 3191 2616 2906 2266 
Q 2828 2175 2409 1742 
Q 1991 1309 1228 531 
z
" transform="scale(0.015625)"/>
        <path id="DejaVuSans-18" d="M 691 4666 
L 3169 4666 
L 3169 4134 
L 1269 4134 
L 1269 2991 
Q 1406 3038 1543 3061 
Q 1681 3084 1819 3084 
Q 2600 3084 3056 2656 
Q 3513 2228 3513 1497 
Q 3513 744 3044 326 
Q 2575 -91 1722 -91 
Q 1428 -91 1123 -41 
Q 819 9 494 109 
L 494 744 
Q 775 591 1075 516 
Q 1375 441 1709 441 
Q 2250 441 2565 725 
Q 2881 1009 2881 1497 
Q 2881 1984 2565 2268 
Q 2250 2553 1709 2553 
Q 1456 2553 1204 2497 
Q 953 2441 691 2322 
L 691 4666 
z
" transform="scale(0.015625)"/>
       </defs>
       <use xlink:href="#DejaVuSans-15"/>
       <use xlink:href="#DejaVuSans-18" transform="translate(63.625 0)"/>
       <use xlink:href="#DejaVuSans-13" transform="translate(127.25 0)"/>
      </g>
     </g>
    </g>
    <g id="xtick_3">
     <g id="line2d_5">
      <path d="M 159.997406 415.717969 
L 159.997406 32.677969 
" clip-path="url(#p9813d5d6b0)" style="fill: none; stroke: #e1e0d9; stroke-width: 0.8; stroke-linecap: square"/>
     </g>
     <g id="line2d_6">
      <g>
       <use xlink:href="#m99e6c03687" x="159.997406" y="415.717969" style="fill: #898781; stroke: #898781; stroke-width: 0.8"/>
      </g>
     </g>
     <g id="text_3">
      <!-- 500 -->
      <g style="fill: #898781" transform="translate(151.408031 429.055859) scale(0.09 -0.09)">
       <use xlink:href="#DejaVuSans-18"/>
       <use xlink:href="#DejaVuSans-13" transform="translate(63.625 0)"/>
       <use xlink:href="#DejaVuSans-13" transform="translate(127.25 0)"/>
      </g>
     </g>
    </g>
    <g id="xtick_4">
     <g id="line2d_7">
      <path d="M 213.143238 415.717969 
L 213.143238 32.677969 
" clip-path="url(#p9813d5d6b0)" style="fill: none; stroke: #e1e0d9; stroke-width: 0.8; stroke-linecap: square"/>
     </g>
     <g id="line2d_8">
      <g>
       <use xlink:href="#m99e6c03687" x="213.143238" y="415.717969" style="fill: #898781; stroke: #898781; stroke-width: 0.8"/>
      </g>
     </g>
     <g id="text_4">
      <!-- 750 -->
      <g style="fill: #898781" transform="translate(204.553863 429.055859) scale(0.09 -0.09)">
       <defs>
        <path id="DejaVuSans-1a" d="M 525 4666 
L 3525 4666 
L 3525 4397 
L 1831 0 
L 1172 0 
L 2766 4134 
L 525 4134 
L 525 4666 
z
" transform="scale(0.015625)"/>
       </defs>
       <use xlink:href="#DejaVuSans-1a"/>
       <use xlink:href="#DejaVuSans-18" transform="translate(63.625 0)"/>
       <use xlink:href="#DejaVuSans-13" transform="translate(127.25 0)"/>
      </g>
     </g>
    </g>
    <g id="xtick_5">
     <g id="line2d_9">
      <path d="M 266.289071 415.717969 
L 266.289071 32.677969 
" clip-path="url(#p9813d5d6b0)" style="fill: none; stroke: #e1e0d9; stroke-width: 0.8; stroke-linecap: square"/>
     </g>
     <g id="line2d_10">
      <g>
       <use xlink:href="#m99e6c03687" x="266.289071" y="415.717969" style="fill: #898781; stroke: #898781; stroke-width: 0.8"/>
      </g>
     </g>
     <g id="text_5">
      <!-- 1000 -->
      <g style="fill: #898781" transform="translate(254.836571 429.055859) scale(0.09 -0.09)">
       <defs>
        <path id="DejaVuSans-14" d="M 794 531 
L 1825 531 
L 1825 4091 
L 703 3866 
L 703 4441 
L 1819 4666 
L 2450 4666 
L 2450 531 
L 3481 531 
L 3481 0 
L 794 0 
L 794 531 
z
" transform="scale(0.015625)"/>
       </defs>
       <use xlink:href="#DejaVuSans-14"/>
       <use xlink:href="#DejaVuSans-13" transform="translate(63.625 0)"/>
       <use xlink:href="#DejaVuSans-13" transform="translate(127.25 0)"/>
       <use xlink:href="#DejaVuSans-13" transform="translate(190.875 0)"/>
      </g>
     </g>
    </g>
    <g id="xtick_6">
     <g id="line2d_11">
      <path d="M 319.434903 415.717969 
L 319.434903 32.677969 
" clip-path="url(#p9813d5d6b0)" style="fill: none; stroke: #e1e0d9; stroke-width: 0.8; stroke-linecap: square"/>
     </g>
     <g id="line2d_12">
      <g>
       <use xlink:href="#m99e6c03687" x="319.434903" y="415.717969" style="fill: #898781; stroke: #898781; stroke-width: 0.8"/>
      </g>
     </g>
     <g id="text_6">
      <!-- 1250 -->
      <g style="fill: #898781" transform="translate(307.982403 429.055859) scale(0.09 -0.09)">
       <use xlink:href="#DejaVuSans-14"/>
       <use xlink:href="#DejaVuSans-15" transform="translate(63.625 0)"/>
       <use xlink:href="#DejaVuSans-18" transform="translate(127.25 0)"/>
       <use xlink:href="#DejaVuSans-13" transform="translate(190.875 0)"/>
      </g>
     </g>
    </g>
    <g id="xtick_7">
     <g id="line2d_13">
      <path d="M 372.580735 415.717969 
L 372.580735 32.677969 
" clip-path="url(#p9813d5d6b0)" style="fill: none; stroke: #e1e0d9; stroke-width: 0.8; stroke-linecap: square"/>
     </g>
     <g id="line2d_14">
      <g>
       <use xlink:href="#m99e6c03687" x="372.580735" y="415.717969" style="fill: #898781; stroke: #898781; stroke-width: 0.8"/>
      </g>
     </g>
     <g id="text_7">
      <!-- 1500 -->
      <g style="fill: #898781" transform="translate(361.128235 429.055859) scale(0.09 -0.09)">
       <use xlink:href="#DejaVuSans-14"/>
       <use xlink:href="#DejaVuSans-18" transform="translate(63.625 0)"/>
       <use xlink:href="#DejaVuSans-13" transform="translate(127.25 0)"/>
       <use xlink:href="#DejaVuSans-13" transform="translate(190.875 0)"/>
      </g>
     </g>
    </g>
    <g id="xtick_8">
     <g id="line2d_15">
      <path d="M 425.726567 415.717969 
L 425.726567 32.677969 
" clip-path="url(#p9813d5d6b0)" style="fill: none; stroke: #e1e0d9; stroke-width: 0.8; stroke-linecap: square"/>
     </g>
     <g id="line2d_16">
      <g>
       <use xlink:href="#m99e6c03687" x="425.726567" y="415.717969" style="fill: #898781; stroke: #898781; stroke-width: 0.8"/>
      </g>
     </g>
     <g id="text_8">
      <!-- 1750 -->
      <g style="fill: #898781" transform="translate(414.274067 429.055859) scale(0.09 -0.09)">
       <use xlink:href="#DejaVuSans-14"/>
       <use xlink:href="#DejaVuSans-1a" transform="translate(63.625 0)"/>
       <use xlink:href="#DejaVuSans-18" transform="translate(127.25 0)"/>
       <use xlink:href="#DejaVuSans-13" transform="translate(190.875 0)"/>
      </g>
     </g>
    </g>
    <g id="xtick_9">
     <g id="line2d_17">
      <path d="M 478.872399 415.717969 
L 478.872399 32.677969 
" clip-path="url(#p9813d5d6b0)" style="fill: none; stroke: #e1e0d9; stroke-width: 0.8; stroke-linecap: square"/>
     </g>
     <g id="line2d_18">
      <g>
       <use xlink:href="#m99e6c03687" x="478.872399" y="415.717969" style="fill: #898781; stroke: #898781; stroke-width: 0.8"/>
      </g>
     </g>
     <g id="text_9">
      <!-- 2000 -->
      <g style="fill: #898781" transform="translate(467.419899 429.055859) scale(0.09 -0.09)">
       <use xlink:href="#DejaVuSans-15"/>
       <use xlink:href="#DejaVuSans-13" transform="translate(63.625 0)"/>
       <use xlink:href="#DejaVuSans-13" transform="translate(127.25 0)"/>
       <use xlink:href="#DejaVuSans-13" transform="translate(190.875 0)"/>
      </g>
     </g>
    </g>
    <g id="text_10">
     <!-- Volume traded at price -->
     <g style="fill: #898781" transform="translate(228.015859 442.436484) scale(0.095 -0.095)">
      <defs>
       <path id="DejaVuSans-39" d="M 1831 0 
L 50 4666 
L 709 4666 
L 2188 738 
L 3669 4666 
L 4325 4666 
L 2547 0 
L 1831 0 
z
" transform="scale(0.015625)"/>
       <path id="DejaVuSans-52" d="M 1959 3097 
Q 1497 3097 1228 2736 
Q 959 2375 959 1747 
Q 959 1119 1226 758 
Q 1494 397 1959 397 
Q 2419 397 2687 759 
Q 2956 1122 2956 1747 
Q 2956 2369 2687 2733 
Q 2419 3097 1959 3097 
z
M 1959 3584 
Q 2709 3584 3137 3096 
Q 3566 2609 3566 1747 
Q 3566 888 3137 398 
Q 2709 -91 1959 -91 
Q 1206 -91 779 398 
Q 353 888 353 1747 
Q 353 2609 779 3096 
Q 1206 3584 1959 3584 
z
" transform="scale(0.015625)"/>
       <path id="DejaVuSans-4f" d="M 603 4863 
L 1178 4863 
L 1178 0 
L 603 0 
L 603 4863 
z
" transform="scale(0.015625)"/>
       <path id="DejaVuSans-58" d="M 544 1381 
L 544 3500 
L 1119 3500 
L 1119 1403 
Q 1119 906 1312 657 
Q 1506 409 1894 409 
Q 2359 409 2629 706 
Q 2900 1003 2900 1516 
L 2900 3500 
L 3475 3500 
L 3475 0 
L 2900 0 
L 2900 538 
Q 2691 219 2414 64 
Q 2138 -91 1772 -91 
Q 1169 -91 856 284 
Q 544 659 544 1381 
z
M 1991 3584 
L 1991 3584 
z
" transform="scale(0.015625)"/>
       <path id="DejaVuSans-50" d="M 3328 2828 
Q 3544 3216 3844 3400 
Q 4144 3584 4550 3584 
Q 5097 3584 5394 3201 
Q 5691 2819 5691 2113 
L 5691 0 
L 5113 0 
L 5113 2094 
Q 5113 2597 4934 2840 
Q 4756 3084 4391 3084 
Q 3944 3084 3684 2787 
Q 3425 2491 3425 1978 
L 3425 0 
L 2847 0 
L 2847 2094 
Q 2847 2600 2669 2842 
Q 2491 3084 2119 3084 
Q 1678 3084 1418 2786 
Q 1159 2488 1159 1978 
L 1159 0 
L 581 0 
L 581 3500 
L 1159 3500 
L 1159 2956 
Q 1356 3278 1631 3431 
Q 1906 3584 2284 3584 
Q 2666 3584 2933 3390 
Q 3200 3197 3328 2828 
z
" transform="scale(0.015625)"/>
       <path id="DejaVuSans-48" d="M 3597 1894 
L 3597 1613 
L 953 1613 
Q 991 1019 1311 708 
Q 1631 397 2203 397 
Q 2534 397 2845 478 
Q 3156 559 3463 722 
L 3463 178 
Q 3153 47 2828 -22 
Q 2503 -91 2169 -91 
Q 1331 -91 842 396 
Q 353 884 353 1716 
Q 353 2575 817 3079 
Q 1281 3584 2069 3584 
Q 2775 3584 3186 3129 
Q 3597 2675 3597 1894 
z
M 3022 2063 
Q 3016 2534 2758 2815 
Q 2500 3097 2075 3097 
Q 1594 3097 1305 2825 
Q 1016 2553 972 2059 
L 3022 2063 
z
" transform="scale(0.015625)"/>
       <path id="DejaVuSans-3" transform="scale(0.015625)"/>
       <path id="DejaVuSans-57" d="M 1172 4494 
L 1172 3500 
L 2356 3500 
L 2356 3053 
L 1172 3053 
L 1172 1153 
Q 1172 725 1289 603 
Q 1406 481 1766 481 
L 2356 481 
L 2356 0 
L 1766 0 
Q 1100 0 847 248 
Q 594 497 594 1153 
L 594 3053 
L 172 3053 
L 172 3500 
L 594 3500 
L 594 4494 
L 1172 4494 
z
" transform="scale(0.015625)"/>
       <path id="DejaVuSans-55" d="M 2631 2963 
Q 2534 3019 2420 3045 
Q 2306 3072 2169 3072 
Q 1681 3072 1420 2755 
Q 1159 2438 1159 1844 
L 1159 0 
L 581 0 
L 581 3500 
L 1159 3500 
L 1159 2956 
Q 1341 3275 1631 3429 
Q 1922 3584 2338 3584 
Q 2397 3584 2469 3576 
Q 2541 3569 2628 3553 
L 2631 2963 
z
" transform="scale(0.015625)"/>
       <path id="DejaVuSans-44" d="M 2194 1759 
Q 1497 1759 1228 1600 
Q 959 1441 959 1056 
Q 959 750 1161 570 
Q 1363 391 1709 391 
Q 2188 391 2477 730 
Q 2766 1069 2766 1631 
L 2766 1759 
L 2194 1759 
z
M 3341 1997 
L 3341 0 
L 2766 0 
L 2766 531 
Q 2569 213 2275 61 
Q 1981 -91 1556 -91 
Q 1019 -91 701 211 
Q 384 513 384 1019 
Q 384 1609 779 1909 
Q 1175 2209 1959 2209 
L 2766 2209 
L 2766 2266 
Q 2766 2663 2505 2880 
Q 2244 3097 1772 3097 
Q 1472 3097 1187 3025 
Q 903 2953 641 2809 
L 641 3341 
Q 956 3463 1253 3523 
Q 1550 3584 1831 3584 
Q 2591 3584 2966 3190 
Q 3341 2797 3341 1997 
z
" transform="scale(0.015625)"/>
       <path id="DejaVuSans-47" d="M 2906 2969 
L 2906 4863 
L 3481 4863 
L 3481 0 
L 2906 0 
L 2906 525 
Q 2725 213 2448 61 
Q 2172 -91 1784 -91 
Q 1150 -91 751 415 
Q 353 922 353 1747 
Q 353 2572 751 3078 
Q 1150 3584 1784 3584 
Q 2172 3584 2448 3432 
Q 2725 3281 2906 2969 
z
M 947 1747 
Q 947 1113 1208 752 
Q 1469 391 1925 391 
Q 2381 391 2643 752 
Q 2906 1113 2906 1747 
Q 2906 2381 2643 2742 
Q 2381 3103 1925 3103 
Q 1469 3103 1208 2742 
Q 947 2381 947 1747 
z
" transform="scale(0.015625)"/>
       <path id="DejaVuSans-53" d="M 1159 525 
L 1159 -1331 
L 581 -1331 
L 581 3500 
L 1159 3500 
L 1159 2969 
Q 1341 3281 1617 3432 
Q 1894 3584 2278 3584 
Q 2916 3584 3314 3078 
Q 3713 2572 3713 1747 
Q 3713 922 3314 415 
Q 2916 -91 2278 -91 
Q 1894 -91 1617 61 
Q 1341 213 1159 525 
z
M 3116 1747 
Q 3116 2381 2855 2742 
Q 2594 3103 2138 3103 
Q 1681 3103 1420 2742 
Q 1159 2381 1159 1747 
Q 1159 1113 1420 752 
Q 1681 391 2138 391 
Q 2594 391 2855 752 
Q 3116 1113 3116 1747 
z
" transform="scale(0.015625)"/>
       <path id="DejaVuSans-4c" d="M 603 3500 
L 1178 3500 
L 1178 0 
L 603 0 
L 603 3500 
z
M 603 4863 
L 1178 4863 
L 1178 4134 
L 603 4134 
L 603 4863 
z
" transform="scale(0.015625)"/>
       <path id="DejaVuSans-46" d="M 3122 3366 
L 3122 2828 
Q 2878 2963 2633 3030 
Q 2388 3097 2138 3097 
Q 1578 3097 1268 2742 
Q 959 2388 959 1747 
Q 959 1106 1268 751 
Q 1578 397 2138 397 
Q 2388 397 2633 464 
Q 2878 531 3122 666 
L 3122 134 
Q 2881 22 2623 -34 
Q 2366 -91 2075 -91 
Q 1284 -91 818 406 
Q 353 903 353 1747 
Q 353 2603 823 3093 
Q 1294 3584 2113 3584 
Q 2378 3584 2631 3529 
Q 2884 3475 3122 3366 
z
" transform="scale(0.015625)"/>
      </defs>
      <use xlink:href="#DejaVuSans-39"/>
      <use xlink:href="#DejaVuSans-52" transform="translate(60.640625 0)"/>
      <use xlink:href="#DejaVuSans-4f" transform="translate(121.828125 0)"/>
      <use xlink:href="#DejaVuSans-58" transform="translate(149.609375 0)"/>
      <use xlink:href="#DejaVuSans-50" transform="translate(212.984375 0)"/>
      <use xlink:href="#DejaVuSans-48" transform="translate(310.390625 0)"/>
      <use xlink:href="#DejaVuSans-3" transform="translate(371.921875 0)"/>
      <use xlink:href="#DejaVuSans-57" transform="translate(403.703125 0)"/>
      <use xlink:href="#DejaVuSans-55" transform="translate(442.90625 0)"/>
      <use xlink:href="#DejaVuSans-44" transform="translate(484.015625 0)"/>
      <use xlink:href="#DejaVuSans-47" transform="translate(545.296875 0)"/>
      <use xlink:href="#DejaVuSans-48" transform="translate(608.78125 0)"/>
      <use xlink:href="#DejaVuSans-47" transform="translate(670.3125 0)"/>
      <use xlink:href="#DejaVuSans-3" transform="translate(733.796875 0)"/>
      <use xlink:href="#DejaVuSans-44" transform="translate(765.578125 0)"/>
      <use xlink:href="#DejaVuSans-57" transform="translate(826.859375 0)"/>
      <use xlink:href="#DejaVuSans-3" transform="translate(866.0625 0)"/>
      <use xlink:href="#DejaVuSans-53" transform="translate(897.84375 0)"/>
      <use xlink:href="#DejaVuSans-55" transform="translate(961.328125 0)"/>
      <use xlink:href="#DejaVuSans-4c" transform="translate(1002.4375 0)"/>
      <use xlink:href="#DejaVuSans-46" transform="translate(1030.21875 0)"/>
      <use xlink:href="#DejaVuSans-48" transform="translate(1085.203125 0)"/>
     </g>
    </g>
   </g>
   <g id="matplotlib.axis_2">
    <g id="ytick_1">
     <g id="line2d_19">
      <defs>
       <path id="mad17e22e40" d="M 0 0 
L -3 0 
" style="stroke: #898781; stroke-width: 0.8"/>
      </defs>
      <g>
       <use xlink:href="#mad17e22e40" x="53.705742" y="404.452086" style="fill: #898781; stroke: #898781; stroke-width: 0.8"/>
      </g>
     </g>
     <g id="text_11">
      <!-- 4980 -->
      <g style="fill: #898781" transform="translate(24.300742 407.871032) scale(0.09 -0.09)">
       <defs>
        <path id="DejaVuSans-17" d="M 2419 4116 
L 825 1625 
L 2419 1625 
L 2419 4116 
z
M 2253 4666 
L 3047 4666 
L 3047 1625 
L 3713 1625 
L 3713 1100 
L 3047 1100 
L 3047 0 
L 2419 0 
L 2419 1100 
L 313 1100 
L 313 1709 
L 2253 4666 
z
" transform="scale(0.015625)"/>
        <path id="DejaVuSans-1c" d="M 703 97 
L 703 672 
Q 941 559 1184 500 
Q 1428 441 1663 441 
Q 2288 441 2617 861 
Q 2947 1281 2994 2138 
Q 2813 1869 2534 1725 
Q 2256 1581 1919 1581 
Q 1219 1581 811 2004 
Q 403 2428 403 3163 
Q 403 3881 828 4315 
Q 1253 4750 1959 4750 
Q 2769 4750 3195 4129 
Q 3622 3509 3622 2328 
Q 3622 1225 3098 567 
Q 2575 -91 1691 -91 
Q 1453 -91 1209 -44 
Q 966 3 703 97 
z
M 1959 2075 
Q 2384 2075 2632 2365 
Q 2881 2656 2881 3163 
Q 2881 3666 2632 3958 
Q 2384 4250 1959 4250 
Q 1534 4250 1286 3958 
Q 1038 3666 1038 3163 
Q 1038 2656 1286 2365 
Q 1534 2075 1959 2075 
z
" transform="scale(0.015625)"/>
        <path id="DejaVuSans-1b" d="M 2034 2216 
Q 1584 2216 1326 1975 
Q 1069 1734 1069 1313 
Q 1069 891 1326 650 
Q 1584 409 2034 409 
Q 2484 409 2743 651 
Q 3003 894 3003 1313 
Q 3003 1734 2745 1975 
Q 2488 2216 2034 2216 
z
M 1403 2484 
Q 997 2584 770 2862 
Q 544 3141 544 3541 
Q 544 4100 942 4425 
Q 1341 4750 2034 4750 
Q 2731 4750 3128 4425 
Q 3525 4100 3525 3541 
Q 3525 3141 3298 2862 
Q 3072 2584 2669 2484 
Q 3125 2378 3379 2068 
Q 3634 1759 3634 1313 
Q 3634 634 3220 271 
Q 2806 -91 2034 -91 
Q 1263 -91 848 271 
Q 434 634 434 1313 
Q 434 1759 690 2068 
Q 947 2378 1403 2484 
z
M 1172 3481 
Q 1172 3119 1398 2916 
Q 1625 2713 2034 2713 
Q 2441 2713 2670 2916 
Q 2900 3119 2900 3481 
Q 2900 3844 2670 4047 
Q 2441 4250 2034 4250 
Q 1625 4250 1398 4047 
Q 1172 3844 1172 3481 
z
" transform="scale(0.015625)"/>
       </defs>
       <use xlink:href="#DejaVuSans-17"/>
       <use xlink:href="#DejaVuSans-1c" transform="translate(63.625 0)"/>
       <use xlink:href="#DejaVuSans-1b" transform="translate(127.25 0)"/>
       <use xlink:href="#DejaVuSans-13" transform="translate(190.875 0)"/>
      </g>
     </g>
    </g>
    <g id="ytick_2">
     <g id="line2d_20">
      <g>
       <use xlink:href="#mad17e22e40" x="53.705742" y="359.388557" style="fill: #898781; stroke: #898781; stroke-width: 0.8"/>
      </g>
     </g>
     <g id="text_12">
      <!-- 4990 -->
      <g style="fill: #898781" transform="translate(24.300742 362.807502) scale(0.09 -0.09)">
       <use xlink:href="#DejaVuSans-17"/>
       <use xlink:href="#DejaVuSans-1c" transform="translate(63.625 0)"/>
       <use xlink:href="#DejaVuSans-1c" transform="translate(127.25 0)"/>
       <use xlink:href="#DejaVuSans-13" transform="translate(190.875 0)"/>
      </g>
     </g>
    </g>
    <g id="ytick_3">
     <g id="line2d_21">
      <g>
       <use xlink:href="#mad17e22e40" x="53.705742" y="314.325028" style="fill: #898781; stroke: #898781; stroke-width: 0.8"/>
      </g>
     </g>
     <g id="text_13">
      <!-- 5000 -->
      <g style="fill: #898781" transform="translate(24.300742 317.743973) scale(0.09 -0.09)">
       <use xlink:href="#DejaVuSans-18"/>
       <use xlink:href="#DejaVuSans-13" transform="translate(63.625 0)"/>
       <use xlink:href="#DejaVuSans-13" transform="translate(127.25 0)"/>
       <use xlink:href="#DejaVuSans-13" transform="translate(190.875 0)"/>
      </g>
     </g>
    </g>
    <g id="ytick_4">
     <g id="line2d_22">
      <g>
       <use xlink:href="#mad17e22e40" x="53.705742" y="269.261498" style="fill: #898781; stroke: #898781; stroke-width: 0.8"/>
      </g>
     </g>
     <g id="text_14">
      <!-- 5010 -->
      <g style="fill: #898781" transform="translate(24.300742 272.680443) scale(0.09 -0.09)">
       <use xlink:href="#DejaVuSans-18"/>
       <use xlink:href="#DejaVuSans-13" transform="translate(63.625 0)"/>
       <use xlink:href="#DejaVuSans-14" transform="translate(127.25 0)"/>
       <use xlink:href="#DejaVuSans-13" transform="translate(190.875 0)"/>
      </g>
     </g>
    </g>
    <g id="ytick_5">
     <g id="line2d_23">
      <g>
       <use xlink:href="#mad17e22e40" x="53.705742" y="224.197969" style="fill: #898781; stroke: #898781; stroke-width: 0.8"/>
      </g>
     </g>
     <g id="text_15">
      <!-- 5020 -->
      <g style="fill: #898781" transform="translate(24.300742 227.616914) scale(0.09 -0.09)">
       <use xlink:href="#DejaVuSans-18"/>
       <use xlink:href="#DejaVuSans-13" transform="translate(63.625 0)"/>
       <use xlink:href="#DejaVuSans-15" transform="translate(127.25 0)"/>
       <use xlink:href="#DejaVuSans-13" transform="translate(190.875 0)"/>
      </g>
     </g>
    </g>
    <g id="ytick_6">
     <g id="line2d_24">
      <g>
       <use xlink:href="#mad17e22e40" x="53.705742" y="179.134439" style="fill: #898781; stroke: #898781; stroke-width: 0.8"/>
      </g>
     </g>
     <g id="text_16">
      <!-- 5030 -->
      <g style="fill: #898781" transform="translate(24.300742 182.553385) scale(0.09 -0.09)">
       <defs>
        <path id="DejaVuSans-16" d="M 2597 2516 
Q 3050 2419 3304 2112 
Q 3559 1806 3559 1356 
Q 3559 666 3084 287 
Q 2609 -91 1734 -91 
Q 1441 -91 1130 -33 
Q 819 25 488 141 
L 488 750 
Q 750 597 1062 519 
Q 1375 441 1716 441 
Q 2309 441 2620 675 
Q 2931 909 2931 1356 
Q 2931 1769 2642 2001 
Q 2353 2234 1838 2234 
L 1294 2234 
L 1294 2753 
L 1863 2753 
Q 2328 2753 2575 2939 
Q 2822 3125 2822 3475 
Q 2822 3834 2567 4026 
Q 2313 4219 1838 4219 
Q 1578 4219 1281 4162 
Q 984 4106 628 3988 
L 628 4550 
Q 988 4650 1302 4700 
Q 1616 4750 1894 4750 
Q 2613 4750 3031 4423 
Q 3450 4097 3450 3541 
Q 3450 3153 3228 2886 
Q 3006 2619 2597 2516 
z
" transform="scale(0.015625)"/>
       </defs>
       <use xlink:href="#DejaVuSans-18"/>
       <use xlink:href="#DejaVuSans-13" transform="translate(63.625 0)"/>
       <use xlink:href="#DejaVuSans-16" transform="translate(127.25 0)"/>
       <use xlink:href="#DejaVuSans-13" transform="translate(190.875 0)"/>
      </g>
     </g>
    </g>
    <g id="ytick_7">
     <g id="line2d_25">
      <g>
       <use xlink:href="#mad17e22e40" x="53.705742" y="134.07091" style="fill: #898781; stroke: #898781; stroke-width: 0.8"/>
      </g>
     </g>
     <g id="text_17">
      <!-- 5040 -->
      <g style="fill: #898781" transform="translate(24.300742 137.489855) scale(0.09 -0.09)">
       <use xlink:href="#DejaVuSans-18"/>
       <use xlink:href="#DejaVuSans-13" transform="translate(63.625 0)"/>
       <use xlink:href="#DejaVuSans-17" transform="translate(127.25 0)"/>
       <use xlink:href="#DejaVuSans-13" transform="translate(190.875 0)"/>
      </g>
     </g>
    </g>
    <g id="ytick_8">
     <g id="line2d_26">
      <g>
       <use xlink:href="#mad17e22e40" x="53.705742" y="89.007381" style="fill: #898781; stroke: #898781; stroke-width: 0.8"/>
      </g>
     </g>
     <g id="text_18">
      <!-- 5050 -->
      <g style="fill: #898781" transform="translate(24.300742 92.426326) scale(0.09 -0.09)">
       <use xlink:href="#DejaVuSans-18"/>
       <use xlink:href="#DejaVuSans-13" transform="translate(63.625 0)"/>
       <use xlink:href="#DejaVuSans-18" transform="translate(127.25 0)"/>
       <use xlink:href="#DejaVuSans-13" transform="translate(190.875 0)"/>
      </g>
     </g>
    </g>
    <g id="ytick_9">
     <g id="line2d_27">
      <g>
       <use xlink:href="#mad17e22e40" x="53.705742" y="43.943851" style="fill: #898781; stroke: #898781; stroke-width: 0.8"/>
      </g>
     </g>
     <g id="text_19">
      <!-- 5060 -->
      <g style="fill: #898781" transform="translate(24.300742 47.362796) scale(0.09 -0.09)">
       <defs>
        <path id="DejaVuSans-19" d="M 2113 2584 
Q 1688 2584 1439 2293 
Q 1191 2003 1191 1497 
Q 1191 994 1439 701 
Q 1688 409 2113 409 
Q 2538 409 2786 701 
Q 3034 994 3034 1497 
Q 3034 2003 2786 2293 
Q 2538 2584 2113 2584 
z
M 3366 4563 
L 3366 3988 
Q 3128 4100 2886 4159 
Q 2644 4219 2406 4219 
Q 1781 4219 1451 3797 
Q 1122 3375 1075 2522 
Q 1259 2794 1537 2939 
Q 1816 3084 2150 3084 
Q 2853 3084 3261 2657 
Q 3669 2231 3669 1497 
Q 3669 778 3244 343 
Q 2819 -91 2113 -91 
Q 1303 -91 875 529 
Q 447 1150 447 2328 
Q 447 3434 972 4092 
Q 1497 4750 2381 4750 
Q 2619 4750 2861 4703 
Q 3103 4656 3366 4563 
z
" transform="scale(0.015625)"/>
       </defs>
       <use xlink:href="#DejaVuSans-18"/>
       <use xlink:href="#DejaVuSans-13" transform="translate(63.625 0)"/>
       <use xlink:href="#DejaVuSans-19" transform="translate(127.25 0)"/>
       <use xlink:href="#DejaVuSans-13" transform="translate(190.875 0)"/>
      </g>
     </g>
    </g>
    <g id="text_20">
     <!-- Price -->
     <g style="fill: #898781" transform="translate(18.018516 235.785742) rotate(-90) scale(0.095 -0.095)">
      <defs>
       <path id="DejaVuSans-33" d="M 1259 4147 
L 1259 2394 
L 2053 2394 
Q 2494 2394 2734 2622 
Q 2975 2850 2975 3272 
Q 2975 3691 2734 3919 
Q 2494 4147 2053 4147 
L 1259 4147 
z
M 628 4666 
L 2053 4666 
Q 2838 4666 3239 4311 
Q 3641 3956 3641 3272 
Q 3641 2581 3239 2228 
Q 2838 1875 2053 1875 
L 1259 1875 
L 1259 0 
L 628 0 
L 628 4666 
z
" transform="scale(0.015625)"/>
      </defs>
      <use xlink:href="#DejaVuSans-33"/>
      <use xlink:href="#DejaVuSans-55" transform="translate(58.546875 0)"/>
      <use xlink:href="#DejaVuSans-4c" transform="translate(99.65625 0)"/>
      <use xlink:href="#DejaVuSans-46" transform="translate(127.4375 0)"/>
      <use xlink:href="#DejaVuSans-48" transform="translate(182.421875 0)"/>
     </g>
    </g>
   </g>
   <g id="line2d_28">
    <path d="M 53.705742 156.602675 
L 511.265742 156.602675 
" clip-path="url(#p9813d5d6b0)" style="fill: none; stroke: #eb6834; stroke-width: 1.4; stroke-linecap: square"/>
   </g>
   <g id="line2d_29">
    <path d="M 53.705742 116.045498 
L 511.265742 116.045498 
" clip-path="url(#p9813d5d6b0)" style="fill: none; stroke-dasharray: 6,4.8; stroke-dashoffset: 0; stroke: #52514e; stroke-width: 1.2"/>
   </g>
   <g id="line2d_30">
    <path d="M 53.705742 215.185263 
L 511.265742 215.185263 
" clip-path="url(#p9813d5d6b0)" style="fill: none; stroke-dasharray: 6,4.8; stroke-dashoffset: 0; stroke: #52514e; stroke-width: 1.2"/>
   </g>
   <g id="patch_4">
    <path d="M 53.705742 406.434882 
L 59.291879 406.434882 
L 59.291879 402.469291 
L 53.705742 402.469291 
z
" clip-path="url(#p9813d5d6b0)" style="fill: #9ec5f4"/>
   </g>
   <g id="patch_5">
    <path d="M 53.705742 401.928529 
L 58.573851 401.928529 
L 58.573851 397.962938 
L 53.705742 397.962938 
z
" clip-path="url(#p9813d5d6b0)" style="fill: #9ec5f4"/>
   </g>
   <g id="patch_6">
    <path d="M 53.705742 397.422176 
L 59.114269 397.422176 
L 59.114269 393.456585 
L 53.705742 393.456585 
z
" clip-path="url(#p9813d5d6b0)" style="fill: #9ec5f4"/>
   </g>
   <g id="patch_7">
    <path d="M 53.705742 392.915823 
L 59.679288 392.915823 
L 59.679288 388.950232 
L 53.705742 388.950232 
z
" clip-path="url(#p9813d5d6b0)" style="fill: #9ec5f4"/>
   </g>
   <g id="patch_8">
    <path d="M 53.705742 388.40947 
L 61.168393 388.40947 
L 61.168393 384.443879 
L 53.705742 384.443879 
z
" clip-path="url(#p9813d5d6b0)" style="fill: #9ec5f4"/>
   </g>
   <g id="patch_9">
    <path d="M 53.705742 383.903117 
L 62.657817 383.903117 
L 62.657817 379.937526 
L 53.705742 379.937526 
z
" clip-path="url(#p9813d5d6b0)" style="fill: #9ec5f4"/>
   </g>
   <g id="patch_10">
    <path d="M 53.705742 379.396764 
L 65.431075 379.396764 
L 65.431075 375.431173 
L 53.705742 375.431173 
z
" clip-path="url(#p9813d5d6b0)" style="fill: #9ec5f4"/>
   </g>
   <g id="patch_11">
    <path d="M 53.705742 374.890411 
L 72.91458 374.890411 
L 72.91458 370.924821 
L 53.705742 370.924821 
z
" clip-path="url(#p9813d5d6b0)" style="fill: #9ec5f4"/>
   </g>
   <g id="patch_12">
    <path d="M 53.705742 370.384058 
L 74.023428 370.384058 
L 74.023428 366.418468 
L 53.705742 366.418468 
z
" clip-path="url(#p9813d5d6b0)" style="fill: #9ec5f4"/>
   </g>
   <g id="patch_13">
    <path d="M 53.705742 365.877705 
L 91.190641 365.877705 
L 91.190641 361.912115 
L 53.705742 361.912115 
z
" clip-path="url(#p9813d5d6b0)" style="fill: #9ec5f4"/>
   </g>
   <g id="patch_14">
    <path d="M 53.705742 361.371352 
L 102.260081 361.371352 
L 102.260081 357.405762 
L 53.705742 357.405762 
z
" clip-path="url(#p9813d5d6b0)" style="fill: #9ec5f4"/>
   </g>
   <g id="patch_15">
    <path d="M 53.705742 356.864999 
L 108.554066 356.864999 
L 108.554066 352.899409 
L 53.705742 352.899409 
z
" clip-path="url(#p9813d5d6b0)" style="fill: #9ec5f4"/>
   </g>
   <g id="patch_16">
    <path d="M 53.705742 352.358646 
L 125.167909 352.358646 
L 125.167909 348.393056 
L 53.705742 348.393056 
z
" clip-path="url(#p9813d5d6b0)" style="fill: #9ec5f4"/>
   </g>
   <g id="patch_17">
    <path d="M 53.705742 347.852293 
L 127.792333 347.852293 
L 127.792333 343.886703 
L 53.705742 343.886703 
z
" clip-path="url(#p9813d5d6b0)" style="fill: #9ec5f4"/>
   </g>
   <g id="patch_18">
    <path d="M 53.705742 343.345941 
L 132.503742 343.345941 
L 132.503742 339.38035 
L 53.705742 339.38035 
z
" clip-path="url(#p9813d5d6b0)" style="fill: #9ec5f4"/>
   </g>
   <g id="patch_19">
    <path d="M 53.705742 338.839588 
L 151.518064 338.839588 
L 151.518064 334.873997 
L 53.705742 334.873997 
z
" clip-path="url(#p9813d5d6b0)" style="fill: #9ec5f4"/>
   </g>
   <g id="patch_20">
    <path d="M 53.705742 334.333235 
L 142.272708 334.333235 
L 142.272708 330.367644 
L 53.705742 330.367644 
z
" clip-path="url(#p9813d5d6b0)" style="fill: #9ec5f4"/>
   </g>
   <g id="patch_21">
    <path d="M 53.705742 329.826882 
L 149.74053 329.826882 
L 149.74053 325.861291 
L 53.705742 325.861291 
z
" clip-path="url(#p9813d5d6b0)" style="fill: #9ec5f4"/>
   </g>
   <g id="patch_22">
    <path d="M 53.705742 325.320529 
L 142.123424 325.320529 
L 142.123424 321.354938 
L 53.705742 321.354938 
z
" clip-path="url(#p9813d5d6b0)" style="fill: #9ec5f4"/>
   </g>
   <g id="patch_23">
    <path d="M 53.705742 320.814176 
L 115.972267 320.814176 
L 115.972267 316.848585 
L 53.705742 316.848585 
z
" clip-path="url(#p9813d5d6b0)" style="fill: #9ec5f4"/>
   </g>
   <g id="patch_24">
    <path d="M 53.705742 316.307823 
L 101.220779 316.307823 
L 101.220779 312.342232 
L 53.705742 312.342232 
z
" clip-path="url(#p9813d5d6b0)" style="fill: #9ec5f4"/>
   </g>
   <g id="patch_25">
    <path d="M 53.705742 311.80147 
L 94.526797 311.80147 
L 94.526797 307.835879 
L 53.705742 307.835879 
z
" clip-path="url(#p9813d5d6b0)" style="fill: #9ec5f4"/>
   </g>
   <g id="patch_26">
    <path d="M 53.705742 307.295117 
L 74.828519 307.295117 
L 74.828519 303.329526 
L 53.705742 303.329526 
z
" clip-path="url(#p9813d5d6b0)" style="fill: #9ec5f4"/>
   </g>
   <g id="patch_27">
    <path d="M 53.705742 302.788764 
L 69.739005 302.788764 
L 69.739005 298.823173 
L 53.705742 298.823173 
z
" clip-path="url(#p9813d5d6b0)" style="fill: #9ec5f4"/>
   </g>
   <g id="patch_28">
    <path d="M 53.705742 298.282411 
L 66.388123 298.282411 
L 66.388123 294.316821 
L 53.705742 294.316821 
z
" clip-path="url(#p9813d5d6b0)" style="fill: #9ec5f4"/>
   </g>
   <g id="patch_29">
    <path d="M 53.705742 293.776058 
L 63.395746 293.776058 
L 63.395746 289.810468 
L 53.705742 289.810468 
z
" clip-path="url(#p9813d5d6b0)" style="fill: #9ec5f4"/>
   </g>
   <g id="patch_30">
    <path d="M 53.705742 289.269705 
L 60.968926 289.269705 
L 60.968926 285.304115 
L 53.705742 285.304115 
z
" clip-path="url(#p9813d5d6b0)" style="fill: #9ec5f4"/>
   </g>
   <g id="patch_31">
    <path d="M 53.705742 284.763352 
L 59.738189 284.763352 
L 59.738189 280.797762 
L 53.705742 280.797762 
z
" clip-path="url(#p9813d5d6b0)" style="fill: #9ec5f4"/>
   </g>
   <g id="patch_32">
    <path d="M 53.705742 280.256999 
L 59.494013 280.256999 
L 59.494013 276.291409 
L 53.705742 276.291409 
z
" clip-path="url(#p9813d5d6b0)" style="fill: #9ec5f4"/>
   </g>
   <g id="patch_33">
    <path d="M 53.705742 275.750646 
L 58.979479 275.750646 
L 58.979479 271.785056 
L 53.705742 271.785056 
z
" clip-path="url(#p9813d5d6b0)" style="fill: #9ec5f4"/>
   </g>
   <g id="patch_34">
    <path d="M 53.705742 271.244293 
L 59.508652 271.244293 
L 59.508652 267.278703 
L 53.705742 267.278703 
z
" clip-path="url(#p9813d5d6b0)" style="fill: #9ec5f4"/>
   </g>
   <g id="patch_35">
    <path d="M 53.705742 266.737941 
L 59.889867 266.737941 
L 59.889867 262.77235 
L 53.705742 262.77235 
z
" clip-path="url(#p9813d5d6b0)" style="fill: #9ec5f4"/>
   </g>
   <g id="patch_36">
    <path d="M 53.705742 262.231588 
L 60.237049 262.231588 
L 60.237049 258.265997 
L 53.705742 258.265997 
z
" clip-path="url(#p9813d5d6b0)" style="fill: #9ec5f4"/>
   </g>
   <g id="patch_37">
    <path d="M 53.705742 257.725235 
L 61.29445 257.725235 
L 61.29445 253.759644 
L 53.705742 253.759644 
z
" clip-path="url(#p9813d5d6b0)" style="fill: #9ec5f4"/>
   </g>
   <g id="patch_38">
    <path d="M 53.705742 253.218882 
L 62.881232 253.218882 
L 62.881232 249.253291 
L 53.705742 249.253291 
z
" clip-path="url(#p9813d5d6b0)" style="fill: #9ec5f4"/>
   </g>
   <g id="patch_39">
    <path d="M 53.705742 248.712529 
L 67.152286 248.712529 
L 67.152286 244.746938 
L 53.705742 244.746938 
z
" clip-path="url(#p9813d5d6b0)" style="fill: #9ec5f4"/>
   </g>
   <g id="patch_40">
    <path d="M 53.705742 244.206176 
L 70.016706 244.206176 
L 70.016706 240.240585 
L 53.705742 240.240585 
z
" clip-path="url(#p9813d5d6b0)" style="fill: #9ec5f4"/>
   </g>
   <g id="patch_41">
    <path d="M 53.705742 239.699823 
L 79.185782 239.699823 
L 79.185782 235.734232 
L 53.705742 235.734232 
z
" clip-path="url(#p9813d5d6b0)" style="fill: #9ec5f4"/>
   </g>
   <g id="patch_42">
    <path d="M 53.705742 235.19347 
L 82.159827 235.19347 
L 82.159827 231.227879 
L 53.705742 231.227879 
z
" clip-path="url(#p9813d5d6b0)" style="fill: #9ec5f4"/>
   </g>
   <g id="patch_43">
    <path d="M 53.705742 230.687117 
L 96.772165 230.687117 
L 96.772165 226.721526 
L 53.705742 226.721526 
z
" clip-path="url(#p9813d5d6b0)" style="fill: #9ec5f4"/>
   </g>
   <g id="patch_44">
    <path d="M 53.705742 226.180764 
L 95.08018 226.180764 
L 95.08018 222.215173 
L 53.705742 222.215173 
z
" clip-path="url(#p9813d5d6b0)" style="fill: #9ec5f4"/>
   </g>
   <g id="patch_45">
    <path d="M 53.705742 221.674411 
L 112.898931 221.674411 
L 112.898931 217.708821 
L 53.705742 217.708821 
z
" clip-path="url(#p9813d5d6b0)" style="fill: #9ec5f4"/>
   </g>
   <g id="patch_46">
    <path d="M 53.705742 217.168058 
L 117.771647 217.168058 
L 117.771647 213.202468 
L 53.705742 213.202468 
z
" clip-path="url(#p9813d5d6b0)" style="fill: #2a78d6"/>
   </g>
   <g id="patch_47">
    <path d="M 53.705742 212.661705 
L 142.248363 212.661705 
L 142.248363 208.696115 
L 53.705742 208.696115 
z
" clip-path="url(#p9813d5d6b0)" style="fill: #2a78d6"/>
   </g>
   <g id="patch_48">
    <path d="M 53.705742 208.155352 
L 171.212447 208.155352 
L 171.212447 204.189762 
L 53.705742 204.189762 
z
" clip-path="url(#p9813d5d6b0)" style="fill: #2a78d6"/>
   </g>
   <g id="patch_49">
    <path d="M 53.705742 203.648999 
L 177.687907 203.648999 
L 177.687907 199.683409 
L 53.705742 199.683409 
z
" clip-path="url(#p9813d5d6b0)" style="fill: #2a78d6"/>
   </g>
   <g id="patch_50">
    <path d="M 53.705742 199.142646 
L 199.328226 199.142646 
L 199.328226 195.177056 
L 53.705742 195.177056 
z
" clip-path="url(#p9813d5d6b0)" style="fill: #2a78d6"/>
   </g>
   <g id="patch_51">
    <path d="M 53.705742 194.636293 
L 230.709285 194.636293 
L 230.709285 190.670703 
L 53.705742 190.670703 
z
" clip-path="url(#p9813d5d6b0)" style="fill: #2a78d6"/>
   </g>
   <g id="patch_52">
    <path d="M 53.705742 190.129941 
L 279.106355 190.129941 
L 279.106355 186.16435 
L 53.705742 186.16435 
z
" clip-path="url(#p9813d5d6b0)" style="fill: #2a78d6"/>
   </g>
   <g id="patch_53">
    <path d="M 53.705742 185.623588 
L 244.194275 185.623588 
L 244.194275 181.657997 
L 53.705742 181.657997 
z
" clip-path="url(#p9813d5d6b0)" style="fill: #2a78d6"/>
   </g>
   <g id="patch_54">
    <path d="M 53.705742 181.117235 
L 254.846451 181.117235 
L 254.846451 177.151644 
L 53.705742 177.151644 
z
" clip-path="url(#p9813d5d6b0)" style="fill: #2a78d6"/>
   </g>
   <g id="patch_55">
    <path d="M 53.705742 176.610882 
L 274.522667 176.610882 
L 274.522667 172.645291 
L 53.705742 172.645291 
z
" clip-path="url(#p9813d5d6b0)" style="fill: #2a78d6"/>
   </g>
   <g id="patch_56">
    <path d="M 53.705742 172.104529 
L 292.890768 172.104529 
L 292.890768 168.138938 
L 53.705742 168.138938 
z
" clip-path="url(#p9813d5d6b0)" style="fill: #2a78d6"/>
   </g>
   <g id="patch_57">
    <path d="M 53.705742 167.598176 
L 280.383732 167.598176 
L 280.383732 163.632585 
L 53.705742 163.632585 
z
" clip-path="url(#p9813d5d6b0)" style="fill: #2a78d6"/>
   </g>
   <g id="patch_58">
    <path d="M 53.705742 163.091823 
L 302.596338 163.091823 
L 302.596338 159.126232 
L 53.705742 159.126232 
z
" clip-path="url(#p9813d5d6b0)" style="fill: #2a78d6"/>
   </g>
   <g id="patch_59">
    <path d="M 53.705742 158.58547 
L 336.150187 158.58547 
L 336.150187 154.619879 
L 53.705742 154.619879 
z
" clip-path="url(#p9813d5d6b0)" style="fill: #eb6834"/>
   </g>
   <g id="patch_60">
    <path d="M 53.705742 154.079117 
L 251.135738 154.079117 
L 251.135738 150.113526 
L 53.705742 150.113526 
z
" clip-path="url(#p9813d5d6b0)" style="fill: #2a78d6"/>
   </g>
   <g id="patch_61">
    <path d="M 53.705742 149.572764 
L 294.36622 149.572764 
L 294.36622 145.607173 
L 53.705742 145.607173 
z
" clip-path="url(#p9813d5d6b0)" style="fill: #2a78d6"/>
   </g>
   <g id="patch_62">
    <path d="M 53.705742 145.066411 
L 218.121068 145.066411 
L 218.121068 141.100821 
L 53.705742 141.100821 
z
" clip-path="url(#p9813d5d6b0)" style="fill: #2a78d6"/>
   </g>
   <g id="patch_63">
    <path d="M 53.705742 140.560058 
L 230.05531 140.560058 
L 230.05531 136.594468 
L 53.705742 136.594468 
z
" clip-path="url(#p9813d5d6b0)" style="fill: #2a78d6"/>
   </g>
   <g id="patch_64">
    <path d="M 53.705742 136.053705 
L 205.428823 136.053705 
L 205.428823 132.088115 
L 53.705742 132.088115 
z
" clip-path="url(#p9813d5d6b0)" style="fill: #2a78d6"/>
   </g>
   <g id="patch_65">
    <path d="M 53.705742 131.547352 
L 205.909499 131.547352 
L 205.909499 127.581762 
L 53.705742 127.581762 
z
" clip-path="url(#p9813d5d6b0)" style="fill: #2a78d6"/>
   </g>
   <g id="patch_66">
    <path d="M 53.705742 127.040999 
L 156.265619 127.040999 
L 156.265619 123.075409 
L 53.705742 123.075409 
z
" clip-path="url(#p9813d5d6b0)" style="fill: #2a78d6"/>
   </g>
   <g id="patch_67">
    <path d="M 53.705742 122.534646 
L 144.284502 122.534646 
L 144.284502 118.569056 
L 53.705742 118.569056 
z
" clip-path="url(#p9813d5d6b0)" style="fill: #2a78d6"/>
   </g>
   <g id="patch_68">
    <path d="M 53.705742 118.028293 
L 130.911417 118.028293 
L 130.911417 114.062703 
L 53.705742 114.062703 
z
" clip-path="url(#p9813d5d6b0)" style="fill: #2a78d6"/>
   </g>
   <g id="patch_69">
    <path d="M 53.705742 113.521941 
L 117.765473 113.521941 
L 117.765473 109.55635 
L 53.705742 109.55635 
z
" clip-path="url(#p9813d5d6b0)" style="fill: #9ec5f4"/>
   </g>
   <g id="patch_70">
    <path d="M 53.705742 109.015588 
L 99.499811 109.015588 
L 99.499811 105.049997 
L 53.705742 105.049997 
z
" clip-path="url(#p9813d5d6b0)" style="fill: #9ec5f4"/>
   </g>
   <g id="patch_71">
    <path d="M 53.705742 104.509235 
L 96.56854 104.509235 
L 96.56854 100.543644 
L 53.705742 100.543644 
z
" clip-path="url(#p9813d5d6b0)" style="fill: #9ec5f4"/>
   </g>
   <g id="patch_72">
    <path d="M 53.705742 100.002882 
L 78.704351 100.002882 
L 78.704351 96.037291 
L 53.705742 96.037291 
z
" clip-path="url(#p9813d5d6b0)" style="fill: #9ec5f4"/>
   </g>
   <g id="patch_73">
    <path d="M 53.705742 95.496529 
L 73.526226 95.496529 
L 73.526226 91.530938 
L 53.705742 91.530938 
z
" clip-path="url(#p9813d5d6b0)" style="fill: #9ec5f4"/>
   </g>
   <g id="patch_74">
    <path d="M 53.705742 90.990176 
L 70.517926 90.990176 
L 70.517926 87.024585 
L 53.705742 87.024585 
z
" clip-path="url(#p9813d5d6b0)" style="fill: #9ec5f4"/>
   </g>
   <g id="patch_75">
    <path d="M 53.705742 86.483823 
L 65.589797 86.483823 
L 65.589797 82.518232 
L 53.705742 82.518232 
z
" clip-path="url(#p9813d5d6b0)" style="fill: #9ec5f4"/>
   </g>
   <g id="patch_76">
    <path d="M 53.705742 81.97747 
L 62.433312 81.97747 
L 62.433312 78.011879 
L 53.705742 78.011879 
z
" clip-path="url(#p9813d5d6b0)" style="fill: #9ec5f4"/>
   </g>
   <g id="patch_77">
    <path d="M 53.705742 77.471117 
L 63.12011 77.471117 
L 63.12011 73.505526 
L 53.705742 73.505526 
z
" clip-path="url(#p9813d5d6b0)" style="fill: #9ec5f4"/>
   </g>
   <g id="patch_78">
    <path d="M 53.705742 72.964764 
L 61.213697 72.964764 
L 61.213697 68.999173 
L 53.705742 68.999173 
z
" clip-path="url(#p9813d5d6b0)" style="fill: #9ec5f4"/>
   </g>
   <g id="patch_79">
    <path d="M 53.705742 68.458411 
L 58.363457 68.458411 
L 58.363457 64.492821 
L 53.705742 64.492821 
z
" clip-path="url(#p9813d5d6b0)" style="fill: #9ec5f4"/>
   </g>
   <g id="patch_80">
    <path d="M 53.705742 63.952058 
L 59.542787 63.952058 
L 59.542787 59.986468 
L 53.705742 59.986468 
z
" clip-path="url(#p9813d5d6b0)" style="fill: #9ec5f4"/>
   </g>
   <g id="patch_81">
    <path d="M 53.705742 59.445705 
L 59.197558 59.445705 
L 59.197558 55.480115 
L 53.705742 55.480115 
z
" clip-path="url(#p9813d5d6b0)" style="fill: #9ec5f4"/>
   </g>
   <g id="patch_82">
    <path d="M 53.705742 54.939352 
L 57.86812 54.939352 
L 57.86812 50.973762 
L 53.705742 50.973762 
z
" clip-path="url(#p9813d5d6b0)" style="fill: #9ec5f4"/>
   </g>
   <g id="patch_83">
    <path d="M 53.705742 50.432999 
L 58.773721 50.432999 
L 58.773721 46.467409 
L 53.705742 46.467409 
z
" clip-path="url(#p9813d5d6b0)" style="fill: #9ec5f4"/>
   </g>
   <g id="patch_84">
    <path d="M 53.705742 45.926646 
L 57.450792 45.926646 
L 57.450792 41.961056 
L 53.705742 41.961056 
z
" clip-path="url(#p9813d5d6b0)" style="fill: #9ec5f4"/>
   </g>
   <g id="patch_85">
    <path d="M 53.705742 415.717969 
L 53.705742 32.677969 
" style="fill: none; stroke: #c3c2b7; stroke-width: 0.8; stroke-linejoin: miter; stroke-linecap: square"/>
   </g>
   <g id="patch_86">
    <path d="M 53.705742 415.717969 
L 511.265742 415.717969 
" style="fill: none; stroke: #c3c2b7; stroke-width: 0.8; stroke-linejoin: miter; stroke-linecap: square"/>
   </g>
   <g id="patch_87">
    <path d="M 347.783761 376.81756 
Q 251.906277 357.039309 157.23327 337.509526 
" style="fill: none; stroke: #52514e; stroke-width: 1.1; stroke-linecap: round"/>
    <path d="M 160.571047 340.13807 
L 157.23327 337.509526 
L 161.338772 336.416431 
" style="fill: none; stroke: #52514e; stroke-width: 1.1; stroke-linecap: round"/>
   </g>
   <g id="text_21">
    <!-- HVN - acceptance: price slows, rotates -->
    <g style="fill: #0b0b0b" transform="translate(291.636942 386.641643) scale(0.095 -0.095)">
     <defs>
      <path id="DejaVuSans-2b" d="M 628 4666 
L 1259 4666 
L 1259 2753 
L 3553 2753 
L 3553 4666 
L 4184 4666 
L 4184 0 
L 3553 0 
L 3553 2222 
L 1259 2222 
L 1259 0 
L 628 0 
L 628 4666 
z
" transform="scale(0.015625)"/>
      <path id="DejaVuSans-31" d="M 628 4666 
L 1478 4666 
L 3547 763 
L 3547 4666 
L 4159 4666 
L 4159 0 
L 3309 0 
L 1241 3903 
L 1241 0 
L 628 0 
L 628 4666 
z
" transform="scale(0.015625)"/>
      <path id="DejaVuSans-10" d="M 313 2009 
L 1997 2009 
L 1997 1497 
L 313 1497 
L 313 2009 
z
" transform="scale(0.015625)"/>
      <path id="DejaVuSans-51" d="M 3513 2113 
L 3513 0 
L 2938 0 
L 2938 2094 
Q 2938 2591 2744 2837 
Q 2550 3084 2163 3084 
Q 1697 3084 1428 2787 
Q 1159 2491 1159 1978 
L 1159 0 
L 581 0 
L 581 3500 
L 1159 3500 
L 1159 2956 
Q 1366 3272 1645 3428 
Q 1925 3584 2291 3584 
Q 2894 3584 3203 3211 
Q 3513 2838 3513 2113 
z
" transform="scale(0.015625)"/>
      <path id="DejaVuSans-1d" d="M 750 794 
L 1409 794 
L 1409 0 
L 750 0 
L 750 794 
z
M 750 3309 
L 1409 3309 
L 1409 2516 
L 750 2516 
L 750 3309 
z
" transform="scale(0.015625)"/>
      <path id="DejaVuSans-56" d="M 2834 3397 
L 2834 2853 
Q 2591 2978 2328 3040 
Q 2066 3103 1784 3103 
Q 1356 3103 1142 2972 
Q 928 2841 928 2578 
Q 928 2378 1081 2264 
Q 1234 2150 1697 2047 
L 1894 2003 
Q 2506 1872 2764 1633 
Q 3022 1394 3022 966 
Q 3022 478 2636 193 
Q 2250 -91 1575 -91 
Q 1294 -91 989 -36 
Q 684 19 347 128 
L 347 722 
Q 666 556 975 473 
Q 1284 391 1588 391 
Q 1994 391 2212 530 
Q 2431 669 2431 922 
Q 2431 1156 2273 1281 
Q 2116 1406 1581 1522 
L 1381 1569 
Q 847 1681 609 1914 
Q 372 2147 372 2553 
Q 372 3047 722 3315 
Q 1072 3584 1716 3584 
Q 2034 3584 2315 3537 
Q 2597 3491 2834 3397 
z
" transform="scale(0.015625)"/>
      <path id="DejaVuSans-5a" d="M 269 3500 
L 844 3500 
L 1563 769 
L 2278 3500 
L 2956 3500 
L 3675 769 
L 4391 3500 
L 4966 3500 
L 4050 0 
L 3372 0 
L 2619 2869 
L 1863 0 
L 1184 0 
L 269 3500 
z
" transform="scale(0.015625)"/>
      <path id="DejaVuSans-f" d="M 750 794 
L 1409 794 
L 1409 256 
L 897 -744 
L 494 -744 
L 750 256 
L 750 794 
z
" transform="scale(0.015625)"/>
     </defs>
     <use xlink:href="#DejaVuSans-2b"/>
     <use xlink:href="#DejaVuSans-39" transform="translate(75.203125 0)"/>
     <use xlink:href="#DejaVuSans-31" transform="translate(143.609375 0)"/>
     <use xlink:href="#DejaVuSans-3" transform="translate(218.421875 0)"/>
     <use xlink:href="#DejaVuSans-10" transform="translate(250.203125 0)"/>
     <use xlink:href="#DejaVuSans-3" transform="translate(286.28125 0)"/>
     <use xlink:href="#DejaVuSans-44" transform="translate(318.0625 0)"/>
     <use xlink:href="#DejaVuSans-46" transform="translate(379.34375 0)"/>
     <use xlink:href="#DejaVuSans-46" transform="translate(434.328125 0)"/>
     <use xlink:href="#DejaVuSans-48" transform="translate(489.3125 0)"/>
     <use xlink:href="#DejaVuSans-53" transform="translate(550.84375 0)"/>
     <use xlink:href="#DejaVuSans-57" transform="translate(614.328125 0)"/>
     <use xlink:href="#DejaVuSans-44" transform="translate(653.53125 0)"/>
     <use xlink:href="#DejaVuSans-51" transform="translate(714.8125 0)"/>
     <use xlink:href="#DejaVuSans-46" transform="translate(778.1875 0)"/>
     <use xlink:href="#DejaVuSans-48" transform="translate(833.171875 0)"/>
     <use xlink:href="#DejaVuSans-1d" transform="translate(894.703125 0)"/>
     <use xlink:href="#DejaVuSans-3" transform="translate(928.390625 0)"/>
     <use xlink:href="#DejaVuSans-53" transform="translate(960.171875 0)"/>
     <use xlink:href="#DejaVuSans-55" transform="translate(1023.65625 0)"/>
     <use xlink:href="#DejaVuSans-4c" transform="translate(1064.765625 0)"/>
     <use xlink:href="#DejaVuSans-46" transform="translate(1092.546875 0)"/>
     <use xlink:href="#DejaVuSans-48" transform="translate(1147.53125 0)"/>
     <use xlink:href="#DejaVuSans-3" transform="translate(1209.0625 0)"/>
     <use xlink:href="#DejaVuSans-56" transform="translate(1240.84375 0)"/>
     <use xlink:href="#DejaVuSans-4f" transform="translate(1292.9375 0)"/>
     <use xlink:href="#DejaVuSans-52" transform="translate(1320.71875 0)"/>
     <use xlink:href="#DejaVuSans-5a" transform="translate(1381.90625 0)"/>
     <use xlink:href="#DejaVuSans-56" transform="translate(1463.6875 0)"/>
     <use xlink:href="#DejaVuSans-f" transform="translate(1515.78125 0)"/>
     <use xlink:href="#DejaVuSans-3" transform="translate(1547.5625 0)"/>
     <use xlink:href="#DejaVuSans-55" transform="translate(1579.34375 0)"/>
     <use xlink:href="#DejaVuSans-52" transform="translate(1618.25 0)"/>
     <use xlink:href="#DejaVuSans-57" transform="translate(1679.4375 0)"/>
     <use xlink:href="#DejaVuSans-44" transform="translate(1718.640625 0)"/>
     <use xlink:href="#DejaVuSans-57" transform="translate(1779.921875 0)"/>
     <use xlink:href="#DejaVuSans-48" transform="translate(1819.125 0)"/>
     <use xlink:href="#DejaVuSans-56" transform="translate(1880.65625 0)"/>
    </g>
   </g>
   <g id="patch_88">
    <path d="M 259.185589 281.730527 
Q 161.357831 277.789466 64.758913 273.897911 
" style="fill: none; stroke: #52514e; stroke-width: 1.1; stroke-linecap: round"/>
    <path d="M 68.479352 275.949333 
L 64.758913 273.897911 
L 68.632314 272.152412 
" style="fill: none; stroke: #52514e; stroke-width: 1.1; stroke-linecap: round"/>
   </g>
   <g id="text_22">
    <!-- LVN - rejection: price moves fast -->
    <g style="fill: #0b0b0b" transform="translate(264.183342 287.501878) scale(0.095 -0.095)">
     <defs>
      <path id="DejaVuSans-2f" d="M 628 4666 
L 1259 4666 
L 1259 531 
L 3531 531 
L 3531 0 
L 628 0 
L 628 4666 
z
" transform="scale(0.015625)"/>
      <path id="DejaVuSans-4d" d="M 603 3500 
L 1178 3500 
L 1178 -63 
Q 1178 -731 923 -1031 
Q 669 -1331 103 -1331 
L -116 -1331 
L -116 -844 
L 38 -844 
Q 366 -844 484 -692 
Q 603 -541 603 -63 
L 603 3500 
z
M 603 4863 
L 1178 4863 
L 1178 4134 
L 603 4134 
L 603 4863 
z
" transform="scale(0.015625)"/>
      <path id="DejaVuSans-59" d="M 191 3500 
L 800 3500 
L 1894 563 
L 2988 3500 
L 3597 3500 
L 2284 0 
L 1503 0 
L 191 3500 
z
" transform="scale(0.015625)"/>
      <path id="DejaVuSans-49" d="M 2375 4863 
L 2375 4384 
L 1825 4384 
Q 1516 4384 1395 4259 
Q 1275 4134 1275 3809 
L 1275 3500 
L 2222 3500 
L 2222 3053 
L 1275 3053 
L 1275 0 
L 697 0 
L 697 3053 
L 147 3053 
L 147 3500 
L 697 3500 
L 697 3744 
Q 697 4328 969 4595 
Q 1241 4863 1831 4863 
L 2375 4863 
z
" transform="scale(0.015625)"/>
     </defs>
     <use xlink:href="#DejaVuSans-2f"/>
     <use xlink:href="#DejaVuSans-39" transform="translate(44.734375 0)"/>
     <use xlink:href="#DejaVuSans-31" transform="translate(113.140625 0)"/>
     <use xlink:href="#DejaVuSans-3" transform="translate(187.953125 0)"/>
     <use xlink:href="#DejaVuSans-10" transform="translate(219.734375 0)"/>
     <use xlink:href="#DejaVuSans-3" transform="translate(255.8125 0)"/>
     <use xlink:href="#DejaVuSans-55" transform="translate(287.59375 0)"/>
     <use xlink:href="#DejaVuSans-48" transform="translate(326.5 0)"/>
     <use xlink:href="#DejaVuSans-4d" transform="translate(388.03125 0)"/>
     <use xlink:href="#DejaVuSans-48" transform="translate(415.8125 0)"/>
     <use xlink:href="#DejaVuSans-46" transform="translate(477.34375 0)"/>
     <use xlink:href="#DejaVuSans-57" transform="translate(532.328125 0)"/>
     <use xlink:href="#DejaVuSans-4c" transform="translate(571.53125 0)"/>
     <use xlink:href="#DejaVuSans-52" transform="translate(599.3125 0)"/>
     <use xlink:href="#DejaVuSans-51" transform="translate(660.5 0)"/>
     <use xlink:href="#DejaVuSans-1d" transform="translate(723.875 0)"/>
     <use xlink:href="#DejaVuSans-3" transform="translate(757.5625 0)"/>
     <use xlink:href="#DejaVuSans-53" transform="translate(789.34375 0)"/>
     <use xlink:href="#DejaVuSans-55" transform="translate(852.828125 0)"/>
     <use xlink:href="#DejaVuSans-4c" transform="translate(893.9375 0)"/>
     <use xlink:href="#DejaVuSans-46" transform="translate(921.71875 0)"/>
     <use xlink:href="#DejaVuSans-48" transform="translate(976.703125 0)"/>
     <use xlink:href="#DejaVuSans-3" transform="translate(1038.234375 0)"/>
     <use xlink:href="#DejaVuSans-50" transform="translate(1070.015625 0)"/>
     <use xlink:href="#DejaVuSans-52" transform="translate(1167.421875 0)"/>
     <use xlink:href="#DejaVuSans-59" transform="translate(1228.609375 0)"/>
     <use xlink:href="#DejaVuSans-48" transform="translate(1287.796875 0)"/>
     <use xlink:href="#DejaVuSans-56" transform="translate(1349.328125 0)"/>
     <use xlink:href="#DejaVuSans-3" transform="translate(1401.421875 0)"/>
     <use xlink:href="#DejaVuSans-49" transform="translate(1433.203125 0)"/>
     <use xlink:href="#DejaVuSans-44" transform="translate(1468.40625 0)"/>
     <use xlink:href="#DejaVuSans-56" transform="translate(1529.6875 0)"/>
     <use xlink:href="#DejaVuSans-57" transform="translate(1581.78125 0)"/>
    </g>
   </g>
   <g id="patch_89">
    <path d="M 439.920368 234.900416 
Q 447.803849 212.802484 455.274093 191.862884 
" style="fill: none; stroke: #52514e; stroke-width: 1.1; stroke-linecap: round"/>
    <path d="M 452.207724 194.803527 
L 455.274093 191.862884 
L 455.786786 196.080365 
" style="fill: none; stroke: #52514e; stroke-width: 1.1; stroke-linecap: round"/>
   </g>
   <g id="text_23">
    <!-- Value area ≈ 70% of volume -->
    <g style="fill: #0b0b0b" transform="translate(368.60578 246.944702) scale(0.095 -0.095)">
     <defs>
      <path id="DejaVuSans-cd2" d="M 4684 1947 
L 4684 1388 
Q 4356 1144 4076 1036 
Q 3797 928 3494 928 
Q 3150 928 2694 1113 
Q 2663 1125 2641 1134 
Q 2622 1141 2575 1159 
Q 2091 1350 1797 1350 
Q 1522 1350 1253 1231 
Q 984 1113 678 850 
L 678 1409 
Q 1006 1653 1286 1761 
Q 1566 1869 1869 1869 
Q 2213 1869 2672 1684 
Q 2706 1669 2722 1663 
Q 2741 1656 2788 1638 
Q 3272 1447 3566 1447 
Q 3834 1447 4098 1564 
Q 4363 1681 4684 1947 
z
M 4684 3163 
L 4684 2606 
Q 4356 2359 4076 2251 
Q 3797 2144 3494 2144 
Q 3150 2144 2694 2328 
Q 2663 2341 2641 2350 
Q 2622 2356 2575 2375 
Q 2091 2566 1797 2566 
Q 1522 2566 1253 2447 
Q 984 2328 678 2069 
L 678 2625 
Q 1006 2869 1286 2976 
Q 1566 3084 1869 3084 
Q 2213 3084 2672 2900 
Q 2703 2888 2719 2881 
Q 2741 2872 2788 2853 
Q 3272 2663 3566 2663 
Q 3834 2663 4098 2780 
Q 4363 2897 4684 3163 
z
" transform="scale(0.015625)"/>
      <path id="DejaVuSans-8" d="M 4653 2053 
Q 4381 2053 4226 1822 
Q 4072 1591 4072 1178 
Q 4072 772 4226 539 
Q 4381 306 4653 306 
Q 4919 306 5073 539 
Q 5228 772 5228 1178 
Q 5228 1588 5073 1820 
Q 4919 2053 4653 2053 
z
M 4653 2450 
Q 5147 2450 5437 2106 
Q 5728 1763 5728 1178 
Q 5728 594 5436 251 
Q 5144 -91 4653 -91 
Q 4153 -91 3862 251 
Q 3572 594 3572 1178 
Q 3572 1766 3864 2108 
Q 4156 2450 4653 2450 
z
M 1428 4353 
Q 1159 4353 1004 4120 
Q 850 3888 850 3481 
Q 850 3069 1003 2837 
Q 1156 2606 1428 2606 
Q 1700 2606 1854 2837 
Q 2009 3069 2009 3481 
Q 2009 3884 1853 4118 
Q 1697 4353 1428 4353 
z
M 4250 4750 
L 4750 4750 
L 1831 -91 
L 1331 -91 
L 4250 4750 
z
M 1428 4750 
Q 1922 4750 2215 4408 
Q 2509 4066 2509 3481 
Q 2509 2891 2217 2550 
Q 1925 2209 1428 2209 
Q 931 2209 642 2551 
Q 353 2894 353 3481 
Q 353 4063 643 4406 
Q 934 4750 1428 4750 
z
" transform="scale(0.015625)"/>
     </defs>
     <use xlink:href="#DejaVuSans-39"/>
     <use xlink:href="#DejaVuSans-44" transform="translate(60.640625 0)"/>
     <use xlink:href="#DejaVuSans-4f" transform="translate(121.921875 0)"/>
     <use xlink:href="#DejaVuSans-58" transform="translate(149.703125 0)"/>
     <use xlink:href="#DejaVuSans-48" transform="translate(213.078125 0)"/>
     <use xlink:href="#DejaVuSans-3" transform="translate(274.609375 0)"/>
     <use xlink:href="#DejaVuSans-44" transform="translate(306.390625 0)"/>
     <use xlink:href="#DejaVuSans-55" transform="translate(367.671875 0)"/>
     <use xlink:href="#DejaVuSans-48" transform="translate(406.578125 0)"/>
     <use xlink:href="#DejaVuSans-44" transform="translate(468.109375 0)"/>
     <use xlink:href="#DejaVuSans-3" transform="translate(529.390625 0)"/>
     <use xlink:href="#DejaVuSans-cd2" transform="translate(561.171875 0)"/>
     <use xlink:href="#DejaVuSans-3" transform="translate(644.96875 0)"/>
     <use xlink:href="#DejaVuSans-1a" transform="translate(676.75 0)"/>
     <use xlink:href="#DejaVuSans-13" transform="translate(740.375 0)"/>
     <use xlink:href="#DejaVuSans-8" transform="translate(804 0)"/>
     <use xlink:href="#DejaVuSans-3" transform="translate(899.015625 0)"/>
     <use xlink:href="#DejaVuSans-52" transform="translate(930.796875 0)"/>
     <use xlink:href="#DejaVuSans-49" transform="translate(991.984375 0)"/>
     <use xlink:href="#DejaVuSans-3" transform="translate(1027.1875 0)"/>
     <use xlink:href="#DejaVuSans-59" transform="translate(1058.96875 0)"/>
     <use xlink:href="#DejaVuSans-52" transform="translate(1118.15625 0)"/>
     <use xlink:href="#DejaVuSans-4f" transform="translate(1179.34375 0)"/>
     <use xlink:href="#DejaVuSans-58" transform="translate(1207.125 0)"/>
     <use xlink:href="#DejaVuSans-50" transform="translate(1270.5 0)"/>
     <use xlink:href="#DejaVuSans-48" transform="translate(1367.90625 0)"/>
    </g>
   </g>
   <g id="text_24">
    <!-- Anatomy of a volume profile -->
    <g style="fill: #0b0b0b" transform="translate(53.705742 20.677969) scale(0.13 -0.13)">
     <defs>
      <path id="DejaVuSans-Bold-24" d="M 3419 850 
L 1538 850 
L 1241 0 
L 31 0 
L 1759 4666 
L 3194 4666 
L 4922 0 
L 3713 0 
L 3419 850 
z
M 1838 1716 
L 3116 1716 
L 2478 3572 
L 1838 1716 
z
" transform="scale(0.015625)"/>
      <path id="DejaVuSans-Bold-51" d="M 4056 2131 
L 4056 0 
L 2931 0 
L 2931 347 
L 2931 1631 
Q 2931 2084 2911 2256 
Q 2891 2428 2841 2509 
Q 2775 2619 2662 2680 
Q 2550 2741 2406 2741 
Q 2056 2741 1856 2470 
Q 1656 2200 1656 1722 
L 1656 0 
L 538 0 
L 538 3500 
L 1656 3500 
L 1656 2988 
Q 1909 3294 2193 3439 
Q 2478 3584 2822 3584 
Q 3428 3584 3742 3212 
Q 4056 2841 4056 2131 
z
" transform="scale(0.015625)"/>
      <path id="DejaVuSans-Bold-44" d="M 2106 1575 
Q 1756 1575 1579 1456 
Q 1403 1338 1403 1106 
Q 1403 894 1545 773 
Q 1688 653 1941 653 
Q 2256 653 2472 879 
Q 2688 1106 2688 1447 
L 2688 1575 
L 2106 1575 
z
M 3816 1997 
L 3816 0 
L 2688 0 
L 2688 519 
Q 2463 200 2181 54 
Q 1900 -91 1497 -91 
Q 953 -91 614 226 
Q 275 544 275 1050 
Q 275 1666 698 1953 
Q 1122 2241 2028 2241 
L 2688 2241 
L 2688 2328 
Q 2688 2594 2478 2717 
Q 2269 2841 1825 2841 
Q 1466 2841 1156 2769 
Q 847 2697 581 2553 
L 581 3406 
Q 941 3494 1303 3539 
Q 1666 3584 2028 3584 
Q 2975 3584 3395 3211 
Q 3816 2838 3816 1997 
z
" transform="scale(0.015625)"/>
      <path id="DejaVuSans-Bold-57" d="M 1759 4494 
L 1759 3500 
L 2913 3500 
L 2913 2700 
L 1759 2700 
L 1759 1216 
Q 1759 972 1856 886 
Q 1953 800 2241 800 
L 2816 800 
L 2816 0 
L 1856 0 
Q 1194 0 917 276 
Q 641 553 641 1216 
L 641 2700 
L 84 2700 
L 84 3500 
L 641 3500 
L 641 4494 
L 1759 4494 
z
" transform="scale(0.015625)"/>
      <path id="DejaVuSans-Bold-52" d="M 2203 2784 
Q 1831 2784 1636 2517 
Q 1441 2250 1441 1747 
Q 1441 1244 1636 976 
Q 1831 709 2203 709 
Q 2569 709 2762 976 
Q 2956 1244 2956 1747 
Q 2956 2250 2762 2517 
Q 2569 2784 2203 2784 
z
M 2203 3584 
Q 3106 3584 3614 3096 
Q 4122 2609 4122 1747 
Q 4122 884 3614 396 
Q 3106 -91 2203 -91 
Q 1297 -91 786 396 
Q 275 884 275 1747 
Q 275 2609 786 3096 
Q 1297 3584 2203 3584 
z
" transform="scale(0.015625)"/>
      <path id="DejaVuSans-Bold-50" d="M 3781 2919 
Q 3994 3244 4286 3414 
Q 4578 3584 4928 3584 
Q 5531 3584 5847 3212 
Q 6163 2841 6163 2131 
L 6163 0 
L 5038 0 
L 5038 1825 
Q 5041 1866 5042 1909 
Q 5044 1953 5044 2034 
Q 5044 2406 4934 2573 
Q 4825 2741 4581 2741 
Q 4263 2741 4089 2478 
Q 3916 2216 3909 1719 
L 3909 0 
L 2784 0 
L 2784 1825 
Q 2784 2406 2684 2573 
Q 2584 2741 2328 2741 
Q 2006 2741 1831 2477 
Q 1656 2213 1656 1722 
L 1656 0 
L 531 0 
L 531 3500 
L 1656 3500 
L 1656 2988 
Q 1863 3284 2130 3434 
Q 2397 3584 2719 3584 
Q 3081 3584 3359 3409 
Q 3638 3234 3781 2919 
z
" transform="scale(0.015625)"/>
      <path id="DejaVuSans-Bold-5c" d="M 78 3500 
L 1197 3500 
L 2138 1125 
L 2938 3500 
L 4056 3500 
L 2584 -331 
Q 2363 -916 2067 -1148 
Q 1772 -1381 1288 -1381 
L 641 -1381 
L 641 -647 
L 991 -647 
Q 1275 -647 1404 -556 
Q 1534 -466 1606 -231 
L 1638 -134 
L 78 3500 
z
" transform="scale(0.015625)"/>
      <path id="DejaVuSans-Bold-3" transform="scale(0.015625)"/>
      <path id="DejaVuSans-Bold-49" d="M 2841 4863 
L 2841 4128 
L 2222 4128 
Q 1984 4128 1890 4042 
Q 1797 3956 1797 3744 
L 1797 3500 
L 2753 3500 
L 2753 2700 
L 1797 2700 
L 1797 0 
L 678 0 
L 678 2700 
L 122 2700 
L 122 3500 
L 678 3500 
L 678 3744 
Q 678 4316 997 4589 
Q 1316 4863 1984 4863 
L 2841 4863 
z
" transform="scale(0.015625)"/>
      <path id="DejaVuSans-Bold-59" d="M 97 3500 
L 1216 3500 
L 2088 1081 
L 2956 3500 
L 4078 3500 
L 2700 0 
L 1472 0 
L 97 3500 
z
" transform="scale(0.015625)"/>
      <path id="DejaVuSans-Bold-4f" d="M 538 4863 
L 1656 4863 
L 1656 0 
L 538 0 
L 538 4863 
z
" transform="scale(0.015625)"/>
      <path id="DejaVuSans-Bold-58" d="M 500 1363 
L 500 3500 
L 1625 3500 
L 1625 3150 
Q 1625 2866 1622 2436 
Q 1619 2006 1619 1863 
Q 1619 1441 1641 1255 
Q 1663 1069 1716 984 
Q 1784 875 1895 815 
Q 2006 756 2150 756 
Q 2500 756 2700 1025 
Q 2900 1294 2900 1772 
L 2900 3500 
L 4019 3500 
L 4019 0 
L 2900 0 
L 2900 506 
Q 2647 200 2364 54 
Q 2081 -91 1741 -91 
Q 1134 -91 817 281 
Q 500 653 500 1363 
z
" transform="scale(0.015625)"/>
      <path id="DejaVuSans-Bold-48" d="M 4031 1759 
L 4031 1441 
L 1416 1441 
Q 1456 1047 1700 850 
Q 1944 653 2381 653 
Q 2734 653 3104 758 
Q 3475 863 3866 1075 
L 3866 213 
Q 3469 63 3072 -14 
Q 2675 -91 2278 -91 
Q 1328 -91 801 392 
Q 275 875 275 1747 
Q 275 2603 792 3093 
Q 1309 3584 2216 3584 
Q 3041 3584 3536 3087 
Q 4031 2591 4031 1759 
z
M 2881 2131 
Q 2881 2450 2695 2645 
Q 2509 2841 2209 2841 
Q 1884 2841 1681 2658 
Q 1478 2475 1428 2131 
L 2881 2131 
z
" transform="scale(0.015625)"/>
      <path id="DejaVuSans-Bold-53" d="M 1656 506 
L 1656 -1331 
L 538 -1331 
L 538 3500 
L 1656 3500 
L 1656 2988 
Q 1888 3294 2169 3439 
Q 2450 3584 2816 3584 
Q 3463 3584 3878 3070 
Q 4294 2556 4294 1747 
Q 4294 938 3878 423 
Q 3463 -91 2816 -91 
Q 2450 -91 2169 54 
Q 1888 200 1656 506 
z
M 2400 2772 
Q 2041 2772 1848 2508 
Q 1656 2244 1656 1747 
Q 1656 1250 1848 986 
Q 2041 722 2400 722 
Q 2759 722 2948 984 
Q 3138 1247 3138 1747 
Q 3138 2247 2948 2509 
Q 2759 2772 2400 2772 
z
" transform="scale(0.015625)"/>
      <path id="DejaVuSans-Bold-55" d="M 3138 2547 
Q 2991 2616 2845 2648 
Q 2700 2681 2553 2681 
Q 2122 2681 1889 2404 
Q 1656 2128 1656 1613 
L 1656 0 
L 538 0 
L 538 3500 
L 1656 3500 
L 1656 2925 
Q 1872 3269 2151 3426 
Q 2431 3584 2822 3584 
Q 2878 3584 2943 3579 
Q 3009 3575 3134 3559 
L 3138 2547 
z
" transform="scale(0.015625)"/>
      <path id="DejaVuSans-Bold-13ab" d="M 3078 4863 
L 4206 4863 
L 4206 3950 
L 3078 3950 
L 3078 4863 
z
M 2847 4863 
L 2847 4128 
L 2228 4128 
Q 1994 4128 1903 4042 
Q 1813 3956 1813 3744 
L 1813 3500 
L 4206 3500 
L 4206 0 
L 3078 0 
L 3078 2700 
L 1813 2700 
L 1813 0 
L 684 0 
L 684 2700 
L 134 2700 
L 134 3500 
L 684 3500 
L 684 3744 
Q 684 4316 1003 4589 
Q 1322 4863 1991 4863 
L 2847 4863 
z
" transform="scale(0.015625)"/>
     </defs>
     <use xlink:href="#DejaVuSans-Bold-24"/>
     <use xlink:href="#DejaVuSans-Bold-51" transform="translate(77.390625 0)"/>
     <use xlink:href="#DejaVuSans-Bold-44" transform="translate(148.578125 0)"/>
     <use xlink:href="#DejaVuSans-Bold-57" transform="translate(216.0625 0)"/>
     <use xlink:href="#DejaVuSans-Bold-52" transform="translate(263.859375 0)"/>
     <use xlink:href="#DejaVuSans-Bold-50" transform="translate(332.5625 0)"/>
     <use xlink:href="#DejaVuSans-Bold-5c" transform="translate(436.765625 0)"/>
     <use xlink:href="#DejaVuSans-Bold-3" transform="translate(501.953125 0)"/>
     <use xlink:href="#DejaVuSans-Bold-52" transform="translate(536.765625 0)"/>
     <use xlink:href="#DejaVuSans-Bold-49" transform="translate(605.46875 0)"/>
     <use xlink:href="#DejaVuSans-Bold-3" transform="translate(648.96875 0)"/>
     <use xlink:href="#DejaVuSans-Bold-44" transform="translate(683.78125 0)"/>
     <use xlink:href="#DejaVuSans-Bold-3" transform="translate(751.265625 0)"/>
     <use xlink:href="#DejaVuSans-Bold-59" transform="translate(786.078125 0)"/>
     <use xlink:href="#DejaVuSans-Bold-52" transform="translate(851.265625 0)"/>
     <use xlink:href="#DejaVuSans-Bold-4f" transform="translate(919.96875 0)"/>
     <use xlink:href="#DejaVuSans-Bold-58" transform="translate(954.25 0)"/>
     <use xlink:href="#DejaVuSans-Bold-50" transform="translate(1025.4375 0)"/>
     <use xlink:href="#DejaVuSans-Bold-48" transform="translate(1129.640625 0)"/>
     <use xlink:href="#DejaVuSans-Bold-3" transform="translate(1197.46875 0)"/>
     <use xlink:href="#DejaVuSans-Bold-53" transform="translate(1232.28125 0)"/>
     <use xlink:href="#DejaVuSans-Bold-55" transform="translate(1303.859375 0)"/>
     <use xlink:href="#DejaVuSans-Bold-52" transform="translate(1353.171875 0)"/>
     <use xlink:href="#DejaVuSans-Bold-13ab" transform="translate(1421.875 0)"/>
     <use xlink:href="#DejaVuSans-Bold-4f" transform="translate(1496 0)"/>
     <use xlink:href="#DejaVuSans-Bold-48" transform="translate(1530.28125 0)"/>
    </g>
   </g>
   <g id="text_25">
    <!-- POC (point of control) -->
    <g style="fill: #0b0b0b" transform="translate(401.777108 149.814095) scale(0.095 -0.095)">
     <defs>
      <path id="DejaVuSans-32" d="M 2522 4238 
Q 1834 4238 1429 3725 
Q 1025 3213 1025 2328 
Q 1025 1447 1429 934 
Q 1834 422 2522 422 
Q 3209 422 3611 934 
Q 4013 1447 4013 2328 
Q 4013 3213 3611 3725 
Q 3209 4238 2522 4238 
z
M 2522 4750 
Q 3503 4750 4090 4092 
Q 4678 3434 4678 2328 
Q 4678 1225 4090 567 
Q 3503 -91 2522 -91 
Q 1538 -91 948 565 
Q 359 1222 359 2328 
Q 359 3434 948 4092 
Q 1538 4750 2522 4750 
z
" transform="scale(0.015625)"/>
      <path id="DejaVuSans-26" d="M 4122 4306 
L 4122 3641 
Q 3803 3938 3442 4084 
Q 3081 4231 2675 4231 
Q 1875 4231 1450 3742 
Q 1025 3253 1025 2328 
Q 1025 1406 1450 917 
Q 1875 428 2675 428 
Q 3081 428 3442 575 
Q 3803 722 4122 1019 
L 4122 359 
Q 3791 134 3420 21 
Q 3050 -91 2638 -91 
Q 1578 -91 968 557 
Q 359 1206 359 2328 
Q 359 3453 968 4101 
Q 1578 4750 2638 4750 
Q 3056 4750 3426 4639 
Q 3797 4528 4122 4306 
z
" transform="scale(0.015625)"/>
      <path id="DejaVuSans-b" d="M 1984 4856 
Q 1566 4138 1362 3434 
Q 1159 2731 1159 2009 
Q 1159 1288 1364 580 
Q 1569 -128 1984 -844 
L 1484 -844 
Q 1016 -109 783 600 
Q 550 1309 550 2009 
Q 550 2706 781 3412 
Q 1013 4119 1484 4856 
L 1984 4856 
z
" transform="scale(0.015625)"/>
      <path id="DejaVuSans-c" d="M 513 4856 
L 1013 4856 
Q 1481 4119 1714 3412 
Q 1947 2706 1947 2009 
Q 1947 1309 1714 600 
Q 1481 -109 1013 -844 
L 513 -844 
Q 928 -128 1133 580 
Q 1338 1288 1338 2009 
Q 1338 2731 1133 3434 
Q 928 4138 513 4856 
z
" transform="scale(0.015625)"/>
     </defs>
     <use xlink:href="#DejaVuSans-33"/>
     <use xlink:href="#DejaVuSans-32" transform="translate(60.296875 0)"/>
     <use xlink:href="#DejaVuSans-26" transform="translate(139.015625 0)"/>
     <use xlink:href="#DejaVuSans-3" transform="translate(208.84375 0)"/>
     <use xlink:href="#DejaVuSans-b" transform="translate(240.625 0)"/>
     <use xlink:href="#DejaVuSans-53" transform="translate(279.640625 0)"/>
     <use xlink:href="#DejaVuSans-52" transform="translate(343.125 0)"/>
     <use xlink:href="#DejaVuSans-4c" transform="translate(404.3125 0)"/>
     <use xlink:href="#DejaVuSans-51" transform="translate(432.09375 0)"/>
     <use xlink:href="#DejaVuSans-57" transform="translate(495.46875 0)"/>
     <use xlink:href="#DejaVuSans-3" transform="translate(534.671875 0)"/>
     <use xlink:href="#DejaVuSans-52" transform="translate(566.453125 0)"/>
     <use xlink:href="#DejaVuSans-49" transform="translate(627.640625 0)"/>
     <use xlink:href="#DejaVuSans-3" transform="translate(662.84375 0)"/>
     <use xlink:href="#DejaVuSans-46" transform="translate(694.625 0)"/>
     <use xlink:href="#DejaVuSans-52" transform="translate(749.609375 0)"/>
     <use xlink:href="#DejaVuSans-51" transform="translate(810.796875 0)"/>
     <use xlink:href="#DejaVuSans-57" transform="translate(874.171875 0)"/>
     <use xlink:href="#DejaVuSans-55" transform="translate(913.375 0)"/>
     <use xlink:href="#DejaVuSans-52" transform="translate(952.28125 0)"/>
     <use xlink:href="#DejaVuSans-4f" transform="translate(1013.46875 0)"/>
     <use xlink:href="#DejaVuSans-c" transform="translate(1041.25 0)"/>
    </g>
   </g>
   <g id="text_26">
    <!-- VAH -->
    <g style="fill: #0b0b0b" transform="translate(484.867967 109.707554) scale(0.095 -0.095)">
     <defs>
      <path id="DejaVuSans-24" d="M 2188 4044 
L 1331 1722 
L 3047 1722 
L 2188 4044 
z
M 1831 4666 
L 2547 4666 
L 4325 0 
L 3669 0 
L 3244 1197 
L 1141 1197 
L 716 0 
L 50 0 
L 1831 4666 
z
" transform="scale(0.015625)"/>
     </defs>
     <use xlink:href="#DejaVuSans-39"/>
     <use xlink:href="#DejaVuSans-24" transform="translate(62.015625 0)"/>
     <use xlink:href="#DejaVuSans-2b" transform="translate(130.421875 0)"/>
    </g>
   </g>
   <g id="text_27">
    <!-- VAL -->
    <g style="fill: #0b0b0b" transform="translate(486.718983 226.458754) scale(0.095 -0.095)">
     <use xlink:href="#DejaVuSans-39"/>
     <use xlink:href="#DejaVuSans-24" transform="translate(62.015625 0)"/>
     <use xlink:href="#DejaVuSans-2f" transform="translate(130.421875 0)"/>
    </g>
   </g>
  </g>
  <g id="text_28">
   <!-- Value area computed with the standard 70% expansion from the POC. -->
   <g style="fill: #52514e" transform="translate(18.281742 468.637969) scale(0.09 -0.09)">
    <defs>
     <path id="DejaVuSans-4b" d="M 3513 2113 
L 3513 0 
L 2938 0 
L 2938 2094 
Q 2938 2591 2744 2837 
Q 2550 3084 2163 3084 
Q 1697 3084 1428 2787 
Q 1159 2491 1159 1978 
L 1159 0 
L 581 0 
L 581 4863 
L 1159 4863 
L 1159 2956 
Q 1366 3272 1645 3428 
Q 1925 3584 2291 3584 
Q 2894 3584 3203 3211 
Q 3513 2838 3513 2113 
z
" transform="scale(0.015625)"/>
     <path id="DejaVuSans-5b" d="M 3513 3500 
L 2247 1797 
L 3578 0 
L 2900 0 
L 1881 1375 
L 863 0 
L 184 0 
L 1544 1831 
L 300 3500 
L 978 3500 
L 1906 2253 
L 2834 3500 
L 3513 3500 
z
" transform="scale(0.015625)"/>
     <path id="DejaVuSans-11" d="M 684 794 
L 1344 794 
L 1344 0 
L 684 0 
L 684 794 
z
" transform="scale(0.015625)"/>
    </defs>
    <use xlink:href="#DejaVuSans-39"/>
    <use xlink:href="#DejaVuSans-44" transform="translate(60.640625 0)"/>
    <use xlink:href="#DejaVuSans-4f" transform="translate(121.921875 0)"/>
    <use xlink:href="#DejaVuSans-58" transform="translate(149.703125 0)"/>
    <use xlink:href="#DejaVuSans-48" transform="translate(213.078125 0)"/>
    <use xlink:href="#DejaVuSans-3" transform="translate(274.609375 0)"/>
    <use xlink:href="#DejaVuSans-44" transform="translate(306.390625 0)"/>
    <use xlink:href="#DejaVuSans-55" transform="translate(367.671875 0)"/>
    <use xlink:href="#DejaVuSans-48" transform="translate(406.578125 0)"/>
    <use xlink:href="#DejaVuSans-44" transform="translate(468.109375 0)"/>
    <use xlink:href="#DejaVuSans-3" transform="translate(529.390625 0)"/>
    <use xlink:href="#DejaVuSans-46" transform="translate(561.171875 0)"/>
    <use xlink:href="#DejaVuSans-52" transform="translate(616.15625 0)"/>
    <use xlink:href="#DejaVuSans-50" transform="translate(677.34375 0)"/>
    <use xlink:href="#DejaVuSans-53" transform="translate(774.75 0)"/>
    <use xlink:href="#DejaVuSans-58" transform="translate(838.234375 0)"/>
    <use xlink:href="#DejaVuSans-57" transform="translate(901.609375 0)"/>
    <use xlink:href="#DejaVuSans-48" transform="translate(940.8125 0)"/>
    <use xlink:href="#DejaVuSans-47" transform="translate(1002.34375 0)"/>
    <use xlink:href="#DejaVuSans-3" transform="translate(1065.828125 0)"/>
    <use xlink:href="#DejaVuSans-5a" transform="translate(1097.609375 0)"/>
    <use xlink:href="#DejaVuSans-4c" transform="translate(1179.390625 0)"/>
    <use xlink:href="#DejaVuSans-57" transform="translate(1207.171875 0)"/>
    <use xlink:href="#DejaVuSans-4b" transform="translate(1246.375 0)"/>
    <use xlink:href="#DejaVuSans-3" transform="translate(1309.75 0)"/>
    <use xlink:href="#DejaVuSans-57" transform="translate(1341.53125 0)"/>
    <use xlink:href="#DejaVuSans-4b" transform="translate(1380.734375 0)"/>
    <use xlink:href="#DejaVuSans-48" transform="translate(1444.109375 0)"/>
    <use xlink:href="#DejaVuSans-3" transform="translate(1505.640625 0)"/>
    <use xlink:href="#DejaVuSans-56" transform="translate(1537.421875 0)"/>
    <use xlink:href="#DejaVuSans-57" transform="translate(1589.515625 0)"/>
    <use xlink:href="#DejaVuSans-44" transform="translate(1628.71875 0)"/>
    <use xlink:href="#DejaVuSans-51" transform="translate(1690 0)"/>
    <use xlink:href="#DejaVuSans-47" transform="translate(1753.375 0)"/>
    <use xlink:href="#DejaVuSans-44" transform="translate(1816.859375 0)"/>
    <use xlink:href="#DejaVuSans-55" transform="translate(1878.140625 0)"/>
    <use xlink:href="#DejaVuSans-47" transform="translate(1917.5 0)"/>
    <use xlink:href="#DejaVuSans-3" transform="translate(1980.984375 0)"/>
    <use xlink:href="#DejaVuSans-1a" transform="translate(2012.765625 0)"/>
    <use xlink:href="#DejaVuSans-13" transform="translate(2076.390625 0)"/>
    <use xlink:href="#DejaVuSans-8" transform="translate(2140.015625 0)"/>
    <use xlink:href="#DejaVuSans-3" transform="translate(2235.03125 0)"/>
    <use xlink:href="#DejaVuSans-48" transform="translate(2266.8125 0)"/>
    <use xlink:href="#DejaVuSans-5b" transform="translate(2326.59375 0)"/>
    <use xlink:href="#DejaVuSans-53" transform="translate(2385.78125 0)"/>
    <use xlink:href="#DejaVuSans-44" transform="translate(2449.265625 0)"/>
    <use xlink:href="#DejaVuSans-51" transform="translate(2510.546875 0)"/>
    <use xlink:href="#DejaVuSans-56" transform="translate(2573.921875 0)"/>
    <use xlink:href="#DejaVuSans-4c" transform="translate(2626.015625 0)"/>
    <use xlink:href="#DejaVuSans-52" transform="translate(2653.796875 0)"/>
    <use xlink:href="#DejaVuSans-51" transform="translate(2714.984375 0)"/>
    <use xlink:href="#DejaVuSans-3" transform="translate(2778.359375 0)"/>
    <use xlink:href="#DejaVuSans-49" transform="translate(2810.140625 0)"/>
    <use xlink:href="#DejaVuSans-55" transform="translate(2845.34375 0)"/>
    <use xlink:href="#DejaVuSans-52" transform="translate(2884.25 0)"/>
    <use xlink:href="#DejaVuSans-50" transform="translate(2945.4375 0)"/>
    <use xlink:href="#DejaVuSans-3" transform="translate(3042.84375 0)"/>
    <use xlink:href="#DejaVuSans-57" transform="translate(3074.625 0)"/>
    <use xlink:href="#DejaVuSans-4b" transform="translate(3113.828125 0)"/>
    <use xlink:href="#DejaVuSans-48" transform="translate(3177.203125 0)"/>
    <use xlink:href="#DejaVuSans-3" transform="translate(3238.734375 0)"/>
    <use xlink:href="#DejaVuSans-33" transform="translate(3270.515625 0)"/>
    <use xlink:href="#DejaVuSans-32" transform="translate(3330.8125 0)"/>
    <use xlink:href="#DejaVuSans-26" transform="translate(3409.53125 0)"/>
    <use xlink:href="#DejaVuSans-11" transform="translate(3479.359375 0)"/>
   </g>
  </g>
 </g>
 <defs>
  <clipPath id="p9813d5d6b0">
   <rect x="53.705742" y="32.677969" width="457.56" height="383.04"/>
  </clipPath>
 </defs>
</svg>
